<?xml version="1.0" encoding="utf-8"?>
<!-- Generator: Adobe Illustrator 25.1.0, SVG Export Plug-In . SVG Version: 6.00 Build 0)  -->
<svg version="1.1" id="_x3C_Layer_x3E_" xmlns="http://www.w3.org/2000/svg" xmlns:xlink="http://www.w3.org/1999/xlink" x="0px"
	 y="0px" viewBox="0 0 2760 1840" style="enable-background:new 0 0 2760 1840;" xml:space="preserve">
<style type="text/css">
	.st0{fill:#D7E9FD;}
	.st1{fill:#B8D5DC;}
	.st2{fill:#CCD39C;}
	.st3{fill:#68A1BF;}
	.st4{fill:#C2C47E;}
	.st5{fill:#62A2C3;}
	.st6{fill:#EFF6FF;}
	.st7{opacity:0.6;}
	.st8{fill:#FFFFFF;}
	.st9{opacity:0.4;}
	.st10{fill:#92BCB5;}
	.st11{fill:#EF8062;}
	.st12{opacity:0.9;}
	.st13{fill:#366F90;}
	.st14{opacity:0.3;}
	.st15{opacity:0.5;}
	.st16{opacity:0.2;}
	.st17{fill:#C7CC86;}
	.st18{fill:#331832;}
	.st19{fill:#FFB27D;}
	.st20{fill:#92A5E6;}
	.st21{fill:#5C305D;}
	.st22{fill:#080435;}
	.st23{fill:#EC865C;}
	.st24{fill:#020202;}
	.st25{fill:#764678;}
	.st26{fill:#E9845C;}
	.st27{fill:#BD7F58;}
	.st28{fill:#5E8C84;}
	.st29{fill:#060423;}
	.st30{fill:#100B47;}
</style>
<g>
	<g>
		<path class="st0" d="M2653.06,424.86v940.84c0,150.88-149.02,252.62-329.07,273.17c-210.12,23.97-426.6,13.98-868.94-11.1
			c-248.37-14.09-747.79,9.24-997.06,11.1c-181.73,1.34-329.07-122.29-329.07-273.17V424.86c0-150.86,147.65-282.03,329.07-273.15
			c168.48,8.24,416.31,40.86,674.64,20.89c307.25-23.76,890.44-43.95,1191.35-20.89C2504.95,165.58,2653.06,274.01,2653.06,424.86z"
			/>
	</g>
	<g>
		<path class="st1" d="M2653.05,980.72v415.6c0,134.77-149.02,225.66-329.07,244.01c-210.12,21.41-426.6,12.49-868.94-9.91
			c-248.37-12.59-747.78,8.26-997.06,9.91c-181.73,1.2-329.07-109.24-329.07-244.01v-415.6H2653.05z"/>
	</g>
	<g>
		<g>
			<path class="st2" d="M474.38,843.39c0,0-146.99,9.78-155-51.34c-8.02-61.12,66.81-68.45,69.48-124.68
				c2.67-56.23-10.69-141.79,61.47-156.46c72.16-14.67,50.78,51.34,93.54,90.45c42.76,39.11,40.09,70.9,40.09,122.23
				C583.95,774.94,728.27,853.17,474.38,843.39z"/>
		</g>
		<g>
			<path class="st3" d="M465.03,960.98c0,0-4.9-6.32-2.23-40.32c2.67-34,0-274.95,8.02-275.92c4.25-0.52,3.32,96.57,3.12,181.68
				C473.76,901.73,481.51,961.46,465.03,960.98z"/>
		</g>
		<g>
			<g>
				<path class="st3" d="M466.06,817.26c-39.7-19.83-55.88-64.62-56.55-66.5l5.03-1.8c0.16,0.46,16.17,44.66,53.9,63.51
					L466.06,817.26z"/>
			</g>
		</g>
		<g>
			<g>
				<path class="st3" d="M467.94,750.65l-1.38-5.18c34.73-9.31,47.04-45.1,47.15-45.45l5.07,1.67
					C518.26,703.28,505.43,740.59,467.94,750.65z"/>
			</g>
		</g>
	</g>
	<g>
		<g>
			<path class="st2" d="M2467.19,907.91c0,0-164.86,11.94-173.85-62.68c-8.99-74.62,74.93-83.58,77.93-152.23
				c3-68.65-11.99-173.13,68.94-191.04c80.93-17.91,56.95,62.68,104.91,110.44c47.96,47.76,44.96,86.56,44.96,149.25
				S2751.95,919.85,2467.19,907.91z"/>
		</g>
		<g>
			<path class="st3" d="M2456.7,1051.48c0,0-5.5-7.71-2.5-49.23c3-41.52,0-335.72,8.99-336.9c4.77-0.63,3.72,117.91,3.5,221.83
				C2466.49,979.14,2475.19,1052.07,2456.7,1051.48z"/>
		</g>
		<g>
			<g>
				<path class="st3" d="M2457.86,876c-44.53-24.22-62.68-78.9-63.43-81.2l5.64-2.19c0.18,0.56,18.14,54.53,60.45,77.55L2457.86,876
					z"/>
			</g>
		</g>
		<g>
			<g>
				<path class="st3" d="M2459.97,794.67l-1.55-6.32c38.95-11.37,52.76-55.07,52.89-55.5l5.69,2.04
					C2516.41,736.83,2502.02,782.38,2459.97,794.67z"/>
			</g>
		</g>
	</g>
	<g>
		<g>
			<path class="st4" d="M282.26,901c0,0-0.1,0.01-0.28,0.02c-1.1,0.08-5.4,0.34-11.98,0.53c-28.32,0.82-99.11,0.15-141.08-23.96
				V754.38c22.77-23.35,49.22-44.41,50.94-83.8c3.2-73.59-12.8-185.61,73.61-204.81c86.4-19.2,60.8,67.21,112,118.41
				c51.2,51.2,48,92.8,48,160C413.46,811.39,586.26,913.79,282.26,901z"/>
		</g>
		<g>
			<path class="st3" d="M271.05,1019.78c0,0-5.87-7.87-2.67-50.23c3.2-42.37,0-342.56,9.6-343.77c5.09-0.64,3.98,120.31,3.73,226.35
				C281.51,945.97,290.79,1020.39,271.05,1019.78z"/>
		</g>
		<g>
			<g>
				<path class="st3" d="M272.29,832.36c-47.54-23.75-66.92-77.38-67.72-79.63l6.03-2.15c0.19,0.55,19.36,53.48,64.54,76.05
					L272.29,832.36z"/>
			</g>
		</g>
		<g>
			<g>
				<path class="st3" d="M274.54,752.61l-1.65-6.2c41.59-11.15,56.33-54,56.46-54.43l6.08,2
					C334.79,695.88,319.43,740.56,274.54,752.61z"/>
			</g>
		</g>
	</g>
	<g>
		<rect x="328.36" y="597.44" class="st5" width="2047.25" height="587.36"/>
	</g>
	<g>
		<rect x="1539.14" y="597.44" class="st6" width="866.14" height="37.36"/>
	</g>
	<g>
		<rect x="297.75" y="597.44" class="st6" width="866.14" height="37.36"/>
	</g>
	<g class="st7">
		<path class="st8" d="M594.4,267.18c0,0,15.22-29.27,53.73-25.61c38.51,3.67,33.93,33.01,52.27,30.26
			c18.34-2.75,44.02,0,49.52,18.34c5.5,18.34,30.26,8.25,31.18,23.84c0.92,15.59-28.43,26.59-62.35,12.84
			c-33.93-13.75-50.43,10.69-98.12,6.26c-47.68-4.43-53.59-9.93-81.81-7.18c-28.22,2.75-27.55-16.57-14.72-29.41
			C536.93,283.69,588.9,284.91,594.4,267.18z"/>
	</g>
	<g class="st7">
		<path class="st8" d="M401.93,351.36c0,0,6.81-13.1,24.05-11.46c17.24,1.64,15.19,14.78,23.4,13.55s19.7,0,22.17,8.21
			c2.46,8.21,13.55,3.69,13.96,10.67c0.41,6.98-12.73,11.9-27.91,5.75c-15.19-6.16-22.58,4.78-43.92,2.8
			c-21.35-1.98-23.99-4.44-36.62-3.21c-12.63,1.23-12.33-7.42-6.59-13.17C376.2,358.75,399.46,359.3,401.93,351.36z"/>
	</g>
	<g class="st9">
		<path class="st8" d="M1662.29,274.25c0,0,14.13-27.17,49.88-23.77c35.75,3.4,31.5,30.64,48.52,28.09
			c17.02-2.55,40.86,0,45.97,17.02c5.11,17.02,28.09,7.66,28.94,22.13c0.85,14.47-26.39,24.69-57.88,11.92
			c-31.5-12.77-46.82,9.92-91.08,5.81c-44.26-4.11-49.75-9.22-75.95-6.66c-26.2,2.55-25.58-15.39-13.66-27.3
			C1608.94,289.57,1657.18,290.71,1662.29,274.25z"/>
	</g>
	<g class="st9">
		<path class="st8" d="M1296.09,306.33c0,0,7-13.47,24.73-11.78c17.72,1.69,15.61,15.19,24.05,13.93c8.44-1.27,20.26,0,22.79,8.44
			c2.53,8.44,13.93,3.8,14.35,10.97c0.42,7.17-13.08,12.24-28.7,5.91c-15.61-6.33-23.21,4.92-45.16,2.88
			c-21.94-2.04-24.66-4.57-37.65-3.3c-12.99,1.27-12.68-7.63-6.77-13.54C1269.64,313.93,1293.56,314.49,1296.09,306.33z"/>
	</g>
	<g class="st9">
		<path class="st8" d="M1886.74,353.51c0,0,22.22-42.74,78.46-37.39c56.23,5.36,49.54,48.2,76.32,44.18
			c26.78-4.02,64.27,0,72.3,26.78c8.03,26.78,44.18,12.05,45.52,34.81c1.34,22.76-41.51,38.83-91.04,18.74
			c-49.54-20.08-73.64,15.6-143.26,9.14c-69.62-6.46-78.25-14.5-119.46-10.48c-41.21,4.02-40.23-24.2-21.49-42.94
			C1802.83,377.61,1878.7,379.4,1886.74,353.51z"/>
	</g>
	<g>
		<rect x="628.57" y="416.08" class="st10" width="992.13" height="838.8"/>
	</g>
	<g>
		<rect x="588.82" y="383.12" class="st6" width="1062.14" height="57.5"/>
	</g>
	<g>
		<rect x="628.57" y="528.95" class="st11" width="567.77" height="136.97"/>
	</g>
	<g>
		<path class="st6" d="M754.94,622.12H743.8v-23.18h-21.73v23.18h-11.15v-54.09h11.15v21.92h21.73v-21.92h11.15V622.12z"/>
		<path class="st6" d="M814.81,596.31c0,4.14-0.56,7.84-1.67,11.13c-1.11,3.28-2.68,6.06-4.7,8.34c-2.02,2.28-4.44,4.03-7.26,5.26
			c-2.82,1.23-5.93,1.84-9.32,1.84c-3.39,0-6.5-0.61-9.32-1.84c-2.82-1.23-5.26-2.98-7.3-5.26c-2.04-2.28-3.63-5.06-4.77-8.34
			c-1.14-3.28-1.71-6.99-1.71-11.13v-2.38c0-4.11,0.56-7.81,1.69-11.11c1.13-3.29,2.71-6.09,4.74-8.4c2.03-2.3,4.46-4.07,7.28-5.29
			c2.82-1.23,5.93-1.84,9.32-1.84c3.39,0,6.5,0.61,9.32,1.84c2.82,1.23,5.25,2.99,7.28,5.29c2.03,2.3,3.61,5.1,4.74,8.4
			c1.13,3.29,1.69,7,1.69,11.11V596.31z M803.52,593.85c0-5.67-1.02-9.98-3.05-12.93c-2.03-2.95-4.93-4.42-8.69-4.42
			c-3.76,0-6.66,1.47-8.69,4.42c-2.03,2.95-3.05,7.26-3.05,12.93v2.45c0,2.82,0.27,5.32,0.8,7.49c0.53,2.17,1.3,3.99,2.3,5.46
			c1,1.47,2.23,2.59,3.7,3.34c1.46,0.76,3.13,1.13,5.02,1.13c3.76,0,6.65-1.49,8.66-4.46c2.01-2.97,3.01-7.29,3.01-12.97V593.85z"/>
		<path class="st6" d="M856.67,607.93c0-0.94-0.14-1.79-0.41-2.54c-0.27-0.76-0.8-1.45-1.58-2.1c-0.78-0.64-1.86-1.28-3.23-1.89
			c-1.37-0.62-3.15-1.27-5.33-1.97c-2.48-0.79-4.81-1.68-7-2.67c-2.19-0.99-4.11-2.16-5.76-3.51c-1.65-1.35-2.95-2.9-3.9-4.66
			c-0.95-1.76-1.43-3.81-1.43-6.17c0-2.25,0.49-4.32,1.47-6.19c0.98-1.87,2.35-3.46,4.12-4.77c1.77-1.31,3.88-2.33,6.32-3.06
			c2.44-0.73,5.12-1.1,8.04-1.1c3,0,5.72,0.42,8.17,1.24c2.45,0.83,4.54,1.99,6.28,3.47c1.73,1.49,3.07,3.25,4.01,5.29
			c0.94,2.04,1.41,4.28,1.41,6.71H856.7c0-1.14-0.18-2.19-0.54-3.16c-0.36-0.97-0.91-1.8-1.65-2.49c-0.74-0.69-1.67-1.23-2.79-1.62
			c-1.11-0.38-2.43-0.58-3.94-0.58c-1.46,0-2.73,0.16-3.81,0.48c-1.08,0.32-1.97,0.77-2.67,1.34c-0.71,0.57-1.24,1.24-1.6,2.01
			c-0.36,0.77-0.54,1.59-0.54,2.45c0,1.78,0.91,3.28,2.73,4.48c1.82,1.2,4.49,2.32,8.01,3.36c2.95,0.92,5.54,1.93,7.78,3.05
			c2.24,1.11,4.11,2.38,5.61,3.79c1.5,1.41,2.63,3,3.4,4.76c0.77,1.76,1.15,3.75,1.15,5.98c0,2.38-0.46,4.5-1.39,6.35
			c-0.93,1.86-2.25,3.42-3.96,4.7c-1.71,1.28-3.77,2.25-6.19,2.94c-2.42,0.68-5.11,1.02-8.08,1.02c-1.78,0-3.57-0.15-5.35-0.46
			c-1.78-0.31-3.49-0.79-5.11-1.43c-1.62-0.64-3.13-1.45-4.51-2.41c-1.39-0.97-2.59-2.1-3.62-3.42c-1.03-1.31-1.83-2.8-2.41-4.48
			c-0.58-1.67-0.87-3.52-0.87-5.55h11.18c0,1.63,0.26,3.02,0.78,4.16c0.52,1.14,1.24,2.06,2.17,2.77c0.93,0.71,2.05,1.22,3.36,1.54
			c1.31,0.32,2.77,0.48,4.38,0.48c1.44,0,2.69-0.15,3.75-0.46c1.06-0.31,1.94-0.74,2.64-1.28c0.69-0.54,1.21-1.19,1.54-1.95
			C856.5,609.61,856.67,608.8,856.67,607.93z"/>
		<path class="st6" d="M892.24,603.07v19.06H881.1v-54.09h21.1c3.2,0,6.05,0.45,8.56,1.34c2.51,0.89,4.64,2.14,6.39,3.73
			c1.75,1.6,3.08,3.49,3.99,5.68c0.92,2.19,1.37,4.58,1.37,7.15c0,2.63-0.46,4.99-1.37,7.1c-0.92,2.11-2.25,3.9-3.99,5.39
			c-1.75,1.49-3.88,2.63-6.39,3.44c-2.51,0.81-5.37,1.21-8.56,1.21H892.24z M892.24,594.04h9.96c1.58,0,2.95-0.2,4.11-0.59
			c1.15-0.4,2.09-0.95,2.82-1.65c0.73-0.71,1.27-1.55,1.62-2.54c0.35-0.99,0.52-2.07,0.52-3.23c0-1.16-0.17-2.28-0.52-3.36
			c-0.35-1.08-0.89-2.03-1.62-2.86c-0.73-0.83-1.67-1.49-2.82-1.99c-1.15-0.5-2.52-0.74-4.11-0.74h-9.96V594.04z"/>
		<path class="st6" d="M947.73,622.12h-11.15v-54.09h11.15V622.12z"/>
		<path class="st6" d="M1003.4,577.06h-16.57v45.06h-11.15v-45.06h-16.35v-9.03h44.06V577.06z"/>
		<path class="st6" d="M1041.54,610.98H1022l-3.72,11.15h-11.85l20.14-54.09h10.33l20.25,54.09h-11.85L1041.54,610.98z
			 M1025.01,601.95h13.52l-6.8-20.25L1025.01,601.95z"/>
		<path class="st6" d="M1079.05,613.17h23.66v8.95h-34.81v-54.09h11.15V613.17z"/>
	</g>
	<g>
		<rect x="582.04" y="960.27" class="st6" width="1076.98" height="60.88"/>
	</g>
	<g>
		<rect x="886.75" y="1221.06" class="st6" width="450.97" height="18.04"/>
	</g>
	<g>
		<rect x="802.64" y="1239.1" class="st6" width="619.17" height="18.04"/>
	</g>
	<g class="st12">
		<rect x="933.09" y="1051.48" class="st6" width="369.6" height="169.58"/>
	</g>
	<g>
		<rect x="962.34" y="1063.22" class="st5" width="311.11" height="157.84"/>
	</g>
	<g>
		<rect x="677.18" y="1014.62" class="st6" width="21.98" height="258.39"/>
	</g>
	<g>
		<rect x="1493.96" y="1014.62" class="st6" width="21.98" height="258.39"/>
	</g>
	<g>
		<rect x="628.57" y="740.78" class="st13" width="992.13" height="175.88"/>
	</g>
	<g>
		<rect x="1273.45" y="528.95" class="st13" width="347.25" height="136.98"/>
	</g>
	<g class="st14">
		<polygon class="st6" points="842.22,916.66 702.18,916.66 903.11,740.78 1043.14,740.78 		"/>
	</g>
	<g class="st14">
		<polygon class="st6" points="1620.7,740.78 1620.7,779.07 1463.51,916.66 1323.47,916.66 1524.4,740.78 		"/>
	</g>
	<g class="st14">
		<polygon class="st6" points="1620.7,528.95 1620.7,547.79 1485.73,665.93 1345.7,665.93 1502.18,528.95 		"/>
	</g>
	<g class="st15">
		<polygon class="st6" points="1393.52,528.95 1273.45,645.7 1273.45,528.95 		"/>
	</g>
	<g class="st15">
		<polygon class="st6" points="1155.07,740.78 954.15,916.66 912.45,916.66 1113.38,740.78 		"/>
	</g>
	<g class="st16">
		<polygon class="st6" points="1273.45,1063.22 1273.45,1104.74 962.34,1214.49 962.34,1159.42 1235.1,1063.22 		"/>
	</g>
	<g class="st16">
		<polygon class="st6" points="1273.45,1168.75 1273.45,1221.06 1125.15,1221.06 		"/>
	</g>
	<g>
		<path class="st13" d="M1118.16,1221.07l-1.13-0.01c0.36-34.67,1.08-125.29,0.09-128.26c0.04,0.12,0.22,0.3,0.48,0.3v-1.13
			l0.42,0.18c0.37,0.37,0.98,0.99,0.64,65.15C1118.49,1188.9,1118.16,1220.75,1118.16,1221.07z"/>
	</g>
	<g>
		<path class="st13" d="M1042.62,1221.07l-1.13-0.01c0.36-34.67,1.08-125.29,0.09-128.26c0.04,0.12,0.22,0.3,0.48,0.3v-1.13
			l0.42,0.18c0.37,0.37,0.98,0.99,0.64,65.15C1042.96,1188.9,1042.63,1220.75,1042.62,1221.07z"/>
	</g>
	<g>
		<path class="st13" d="M1194.07,1093.71c-20.07,0-45.2-0.03-76.67-0.1c-76.72-0.17-154.28-0.5-155.06-0.5l0.01-1.75
			c105.47,0.45,306.16,1.05,310.84,0.06c-0.24,0.05-0.61,0.35-0.61,0.82h1.75l-0.26,0.63
			C1273.68,1093.25,1273.2,1093.71,1194.07,1093.71z"/>
	</g>
	<g>
		<path class="st13" d="M1193.7,1221.07l-1.13-0.01c0.36-34.67,1.08-125.29,0.09-128.26c0.04,0.12,0.22,0.3,0.48,0.3v-1.13
			l0.42,0.18c0.37,0.37,0.98,0.99,0.64,65.15C1194.03,1188.9,1193.7,1220.75,1193.7,1221.07z"/>
	</g>
	<g>
		<path class="st13" d="M1108.1,1164.31L1108.1,1164.31c-1.03,0-1.88-0.85-1.88-1.88v-5.64c0-1.03,0.85-1.88,1.88-1.88l0,0
			c1.03,0,1.88,0.85,1.88,1.88v5.64C1109.97,1163.47,1109.13,1164.31,1108.1,1164.31z"/>
	</g>
	<g>
		<path class="st13" d="M1128.39,1164.31L1128.39,1164.31c-1.03,0-1.88-0.85-1.88-1.88v-5.64c0-1.03,0.85-1.88,1.88-1.88l0,0
			c1.03,0,1.88,0.85,1.88,1.88v5.64C1130.27,1163.47,1129.42,1164.31,1128.39,1164.31z"/>
	</g>
	<g>
		<g>
			<path class="st17" d="M811.62,1276.3c-0.92-0.05-1.84-0.13-2.79-0.21c-1.81-0.17-3.67-0.39-5.58-0.65
				c-3.62-0.49-7.24-0.79-10.87-0.87c-0.95-0.03-1.88-0.04-2.84-0.01c-0.51-0.01-1.01,0-1.52,0.01
				c-18.21,0.48-66.07,4.59-64.49-23.07c2.01-35.46,37.48-20.44,39.77-34.91c2.72-17.09,36-36.02,50-8.69
				c13.57,26.48,21.15,5.74,37.73,14.53C874.99,1235.13,869.27,1280.25,811.62,1276.3z"/>
		</g>
		<g>
			<g>
				<path class="st13" d="M772.76,1250.56c0,0-36.52,4.32-35.72,7.89c0.8,3.57,35.37-5.98,35.37-5.98L772.76,1250.56z"/>
			</g>
			<g>
				<path class="st13" d="M788.68,1260.37c0,0-39.3-27.51-40.83-26.31c-1.53,1.2,38.83,28.29,38.83,28.29L788.68,1260.37z"/>
			</g>
		</g>
		<g>
			<g>
				<path class="st13" d="M792.38,1274.56c-0.95-0.03-1.88-0.04-2.84-0.01c-0.6-2.21-1.88-6.86-3.42-12.58
					c-0.36-1.33-0.73-2.72-1.12-4.16c-4.51-16.89-10.31-39.46-9.1-39.33c0.84,0.09,4.11,10.89,7.54,23.09
					c0.24,0.83,0.48,1.67,0.71,2.51c1.55,5.52,3.1,11.21,4.44,16.22c0.01,0.04,0.03,0.08,0.04,0.12
					C790.35,1266.85,791.75,1272.16,792.38,1274.56z"/>
			</g>
			<g>
				<g>
					<path class="st13" d="M790.49,1234.56c-0.57,0.89-1.15,1.76-1.7,2.6c-2.65,4.03-4.85,7.23-4.85,7.23l-1.41-1.28
						c0,0,2.49-4.24,5.47-9.03c0.56-0.92,1.14-1.85,1.74-2.78c3.67-5.8,7.48-11.36,8.02-10.38
						C798.32,1221.97,794.33,1228.62,790.49,1234.56z"/>
				</g>
			</g>
		</g>
		<g>
			<g>
				<path class="st13" d="M813.95,1262.35c0,0,29.99-16.25,31.78-13.69c1.79,2.57-30.25,14.65-30.25,14.65L813.95,1262.35z"/>
			</g>
			<g>
				<path class="st13" d="M816.27,1261.12c-0.21,0.73-0.43,1.45-0.64,2.16c-1.87,6.23-3.56,11.62-4.02,13.02
					c-0.92-0.05-1.84-0.13-2.79-0.21c0.68-2.33,4.12-14.04,7.28-23.57c0.29-0.91,0.6-1.8,0.88-2.67c1.99-5.83,3.72-10.3,4.39-10.31
					C822.46,1239.49,819.3,1250.92,816.27,1261.12z"/>
			</g>
			<g>
				<path class="st13" d="M834.63,1252.34c0,0,0.53-14.4,1.97-14.79s0.4,13.78,0.4,13.78L834.63,1252.34z"/>
			</g>
			<g>
				<path class="st13" d="M817.06,1253.71c0,0-12.67-15.9-11.96-17.29s12.8,14.6,12.8,14.6L817.06,1253.71z"/>
			</g>
		</g>
	</g>
	<g>
		<g>
			<path class="st17" d="M1718.39,1208.21c-0.78-0.05-1.55-0.11-2.35-0.18c-1.53-0.15-3.09-0.33-4.7-0.55
				c-3.05-0.42-6.11-0.66-9.17-0.73c-0.8-0.02-1.59-0.03-2.4-0.01c-0.43-0.01-0.85,0-1.28,0.01c-15.36,0.41-55.71,3.87-54.38-19.45
				c1.7-29.9,31.6-17.24,33.54-29.44c2.29-14.41,30.35-30.38,42.17-7.32c11.44,22.33,17.83,4.84,31.82,12.25
				C1771.83,1173.49,1767,1211.54,1718.39,1208.21z"/>
		</g>
	</g>
	<g>
		<g>
			<path class="st17" d="M244.65,1036.09c-1.02-0.06-2.05-0.15-3.1-0.24c-2.02-0.19-4.08-0.43-6.2-0.73
				c-4.02-0.55-8.06-0.88-12.09-0.96c-1.05-0.03-2.09-0.04-3.16-0.01c-0.56-0.01-1.13,0-1.69,0.01
				c-20.25,0.53-73.47,5.1-71.72-25.65c2.24-39.43,41.67-22.73,44.23-38.83c3.03-19,40.03-40.06,55.6-9.66
				c15.09,29.45,23.51,6.38,41.96,16.16C315.12,990.31,308.76,1040.49,244.65,1036.09z"/>
		</g>
	</g>
	<g>
		<g>
			<path class="st2" d="M317.44,1209.48c-1.02-0.06-2.05-0.15-3.1-0.24c-2.02-0.19-4.08-0.43-6.2-0.73
				c-4.02-0.55-8.06-0.88-12.09-0.96c-1.05-0.03-2.09-0.04-3.16-0.01c-0.56-0.01-1.13,0-1.69,0.01
				c-20.25,0.53-73.47,5.1-71.72-25.65c2.24-39.43,41.67-22.73,44.23-38.82c3.03-19,40.03-40.06,55.6-9.66
				c15.09,29.45,23.51,6.38,41.96,16.16C387.91,1163.69,381.55,1213.87,317.44,1209.48z"/>
		</g>
	</g>
	<g>
		<g>
			<path class="st18" d="M734.96,1126.26c2.2,2.79,4.64,4.3,15.38,2.85c2.37-0.32,6.57-3.47,11.22-0.43
				c7.19,4.7-7.25,15.18,11.47,18.21c18.72,3.03,31.34-1.82,42.71,21.5c11.37,23.32-6.03,49.78-24.94,40.9
				c-18.91-8.88-38.4-17.22-53.62,0c-15.22,17.22-29.53-35.15-28.61-41.68c0.92-6.53,13.81-6.23,11.88-15.61
				c-1.93-9.38,4.2-14.39,2.24-17.9C719.98,1129.22,732.31,1122.9,734.96,1126.26z"/>
		</g>
		<g>
			<path class="st19" d="M776.59,1252.54l-7.65-30.35c23.38-5.89,39.76-21.23,48.68-45.58c9.11-24.87,28.77-33.69,38.95-34.99
				l3.95,31.05c0,0,0.17-0.01,0.47-0.07c-0.94,0.19-9.36,2.18-13.98,14.77C838.28,1211.2,818.98,1241.85,776.59,1252.54z"/>
		</g>
		<g>
			<path class="st18" d="M874.64,1509.41c0,0-0.22,8.62-6.05,11.05c-5.83,2.43-22.73,4.62-16.42,10.17
				c3.62,3.18,20.7,1.13,25.52,1.13c4.82,0,9.35,2.1,12.93-1.13c3.94-3.55,0-21.22,0-21.22s-4.16,2.17-7.9,2.07
				C877.33,1511.34,874.64,1509.41,874.64,1509.41z"/>
		</g>
		<g>
			<path class="st13" d="M824.33,1249.31c0,0-1.16,38.9,11.25,113.51c8.96,53.87,19.54,108.15,24.73,134.17
				c1.86,9.31,9.69,16.12,18.96,16.49l4.99,0.2c10.03,0.4,18.17-8.22,17.44-18.46l-12.59-176.06l-3.1-57.95L824.33,1249.31z"/>
		</g>
		<g>
			<path class="st18" d="M929.88,1509.41c0,0-0.22,8.62-6.05,11.05c-5.83,2.43-22.73,4.62-16.42,10.17
				c3.62,3.18,20.7,1.13,25.52,1.13c4.82,0,9.35,2.1,12.93-1.13c3.94-3.55,0-21.22,0-21.22s-4.16,2.17-7.9,2.07
				C932.57,1511.34,929.88,1509.41,929.88,1509.41z"/>
		</g>
		<g>
			<path class="st13" d="M879.56,1249.31c0,0-1.16,38.9,11.25,113.51c8.96,53.87,19.54,108.15,24.73,134.17
				c1.86,9.31,9.69,16.12,18.96,16.49l4.99,0.2c10.03,0.4,18.17-8.22,17.44-18.46l-12.59-176.06l-3.1-57.95L879.56,1249.31z"/>
		</g>
		<g>
			<path class="st18" d="M947.34,1291.93c-0.12,4.69-28.5,6.56-63.59,5.46c-35.1-1.09-63.14-5.95-63.02-10.64
				c0.12-4.69,28.36-7.45,63.46-6.35C919.27,1281.5,947.46,1287.24,947.34,1291.93z"/>
		</g>
		<g>
			<path class="st20" d="M938.74,1159.08c0,0-6.21-24.6-52-24.85c-66.03-0.36-59.92,60.31-66.03,152.52c0,0,65.04-9.2,126.65,4.02
				C947.37,1290.78,953.08,1196.66,938.74,1159.08z"/>
		</g>
		<g>
			<path class="st20" d="M955.65,1155.55l-29.91,16.55c0,0-65.48,5.95-82.87,3.08c-17.38-2.86-22.15-15.63-22.15-15.63
				s18.51-19.16,49.98-24.27c2.96-0.48,6.02-0.84,9.2-1.05c5.34-0.34,10.68-0.27,15.91,0.32
				C935.7,1139.04,955.65,1155.55,955.65,1155.55z"/>
		</g>
		<g>
			<path class="st19" d="M893.04,1128.6l-3.46-11.16l-1.01-3.25l-5.92-19.1l-0.78,18.99l-0.47,11.4l-0.15,3.61
				c-0.1,2.45-1.59,2.96-3.41,5.09c-0.74,0.86-5.45,6.09-0.1,8.45c6.66,2.94,19.12-1.51,23.85-7.35
				C901.58,1135.3,894.16,1132.21,893.04,1128.6z"/>
		</g>
		<g>
			<path class="st13" d="M826.25,1290.55c0,0,38.03-11.19,116.79,4.17l0.61,11.33l-115.45,4.08L826.25,1290.55z"/>
		</g>
		<g>
			
				<ellipse transform="matrix(0.809 -0.5878 0.5878 0.809 -504.9745 777.1936)" class="st18" cx="943.34" cy="1165.57" rx="15.95" ry="7.95"/>
		</g>
		<g>
			<g>
				<path class="st19" d="M964.48,1300.03c-2.75-30.31-9.07-73.64-23.52-107.96c-3.35-7.95-4.74-10.94-7.36-15.28
					c-2.1-3.49,1.66-11.17,7.6-14.83c5.57-3.44,14.25-2.87,15.62-1.17c2.33,2.89,4.83,8.44,8.7,17.24
					c13.47,30.58,21.54,70.08,24.81,121.01L964.48,1300.03z"/>
			</g>
		</g>
		<g>
			<g>
				<path class="st21" d="M867.44,1087.93c0,0-1.21,4.62,0,10.42c1.21,5.8,7.1-8.45,7.1-8.45L867.44,1087.93z"/>
			</g>
			<g>
				
					<ellipse transform="matrix(0.1302 -0.9915 0.9915 0.1302 -324.2909 1834.8119)" class="st19" cx="883.57" cy="1102.23" rx="20.46" ry="16.97"/>
			</g>
			<g>
				<path class="st18" d="M900.82,1098.58l-8.21-0.85c-1.81-0.19-3.46-1.16-4.44-2.69c-1.68-2.63-3.71-3.99-11.37-3.7
					c-9.7,0.36-16.11-5.42-17.16-10.5c-1.07-5.18,3.9-8.69,8.77-6.22c4.87,2.47,2.78-3.59,7.47-4.23c8.76-1.2,10.4,5.55,17.57,5.33
					c9.4-0.29,26.24,6.86,18.25,23.4L900.82,1098.58z"/>
			</g>
			<g>
				<g>
					<path class="st22" d="M882.68,1101.37c-0.09-0.06-0.15-0.15-0.16-0.26c-0.02-0.19,0.12-0.36,0.31-0.37
						c0.11-0.01,2.67-0.47,3.97,2.26c0.08,0.17,0.02,0.38-0.15,0.46c-0.17,0.08-0.34-0.01-0.46-0.15c-1.2-1.48-3.2-1.89-3.29-1.88
						C882.81,1101.43,882.74,1101.41,882.68,1101.37z"/>
				</g>
			</g>
			<g>
				<path class="st22" d="M884.17,1105.78c-0.22,0.79-0.86,1.31-1.43,1.15c-0.57-0.16-0.87-0.93-0.65-1.72
					c0.22-0.79,0.86-1.31,1.43-1.15C884.09,1104.22,884.38,1104.99,884.17,1105.78z"/>
			</g>
			<g>
				<g>
					<path class="st22" d="M869.95,1100.35c-0.08-0.01-0.15-0.07-0.19-0.17c-0.06-0.16,0-0.37,0.13-0.47
						c0.08-0.05,1.84-1.53,3.51,0.4c0.1,0.12,0.11,0.33,0.01,0.48c-0.1,0.15-0.25,0.14-0.38,0.05c-1.27-0.84-2.85-0.38-2.91-0.33
						C870.06,1100.35,870,1100.36,869.95,1100.35z"/>
				</g>
			</g>
			<g>
				<path class="st22" d="M873.09,1103.88c0.1,0.81-0.29,1.53-0.89,1.61s-1.15-0.53-1.25-1.34c-0.1-0.81,0.29-1.53,0.89-1.61
					C872.42,1102.46,872.98,1103.06,873.09,1103.88z"/>
			</g>
			<g>
				<path class="st21" d="M911.7,1099.12c0,0-5.67,12.24-13.72,13.14c0,0,6.5-9.33-7.21-15.01
					C890.78,1097.25,903.36,1095.27,911.7,1099.12z"/>
			</g>
			<g>
				<path class="st19" d="M900.36,1105.88c-1.72,1.09-3.91,0.74-4.89-0.8c-0.98-1.54-0.38-3.67,1.34-4.77
					c1.72-1.09,3.91-0.74,4.89,0.8S902.08,1104.78,900.36,1105.88z"/>
			</g>
			<g>
				<path class="st21" d="M890.78,1097.25c0,0,1.1,10.27-0.99,12.21c-2.09,1.94-15.9,2.78-22.34,0.29l0,0
					c-0.11,6.6,4.54,12.42,11.05,13.52c2.15,0.36,4.38,0.36,6.59-0.02l0,0c4.51-0.79,8.9-2.65,10.76-6.84
					c0.57-1.27-1.08-9.11-1.08-9.11s-0.62-4.6,2.06-6.99C896.82,1100.31,893.73,1097.54,890.78,1097.25z"/>
			</g>
			<g>
				<path class="st8" d="M870.84,1113.46c0,0,5.29,1.43,11.07,0.87c0,0-0.85,5.35-6.7,4.29
					C871.82,1117.99,870.84,1113.46,870.84,1113.46z"/>
			</g>
			<g>
				<path class="st18" d="M869.45,1073.81c-0.05,0-0.09,0-0.14,0l0.01-0.46c0.04,0,0.09,0,0.13,0c2.13,0,2.31-1.72,2.32-1.8
					l0.46,0.04C872.23,1071.62,872,1073.81,869.45,1073.81z"/>
			</g>
			<g>
				<path class="st8" d="M874.05,1088.62c-0.03-0.01-2.67-0.78-5.33-2.22c-3.54-1.91-5.51-4.12-5.69-6.39
					c-0.13-1.58,0.15-2.64,0.85-3.24c1.11-0.96,3.04-0.51,4.73-0.11c0.25,0.06,0.5,0.12,0.73,0.17l-0.05,0.23
					c-0.24-0.05-0.48-0.11-0.74-0.17c-1.64-0.38-3.51-0.82-4.53,0.06c-0.64,0.55-0.89,1.55-0.77,3.05
					c0.43,5.32,10.75,8.38,10.86,8.4L874.05,1088.62z"/>
			</g>
			<g>
				<path class="st8" d="M894.38,1077.84c-3.75,0-6.54-0.98-8.36-1.9c-2.48-1.27-3.68-2.69-3.73-2.75l0.18-0.15
					c0.01,0.01,1.23,1.45,3.67,2.7c2.25,1.15,6.05,2.38,11.31,1.66l0.03,0.23C896.38,1077.78,895.35,1077.84,894.38,1077.84z"/>
			</g>
		</g>
		<g>
			<path class="st23" d="M971.63,1231.77c-2.16,0-4.21-2.25-4.71-5.3c-0.54-3.28,0.92-6.27,3.25-6.65c2.34-0.39,4.67,1.97,5.22,5.26
				l0,0c0.26,1.55,0.08,3.09-0.49,4.32c-0.61,1.31-1.59,2.14-2.76,2.33C971.97,1231.76,971.8,1231.77,971.63,1231.77z
				 M970.68,1220.91c-0.11,0-0.21,0.01-0.32,0.03c-1.72,0.28-2.76,2.68-2.32,5.35c0.43,2.62,2.22,4.6,3.91,4.33
				c0.79-0.13,1.47-0.73,1.91-1.69c0.48-1.03,0.62-2.33,0.4-3.66C973.86,1222.8,972.26,1220.91,970.68,1220.91z"/>
		</g>
		<g>
			<path class="st19" d="M676.77,1442.07l17.6,72.02c2.17,8.92,6.01,2.03,14.98,2.76l3.91,0.32c9.22,0.75,7.26-11,6.16-20.4
				l-3.37-48.66L676.77,1442.07z"/>
		</g>
		<g>
			<path class="st18" d="M691.15,1500.92c0,0-0.09,8.75-2.73,11.64c-4.29,4.68-17.13,4.72-11.15,10.68
				c3.43,3.42,20.68,2.45,25.51,2.76c4.83,0.31,12.76,2.07,16.56-0.93c4.18-3.31,0.62-23.67,0.62-23.67s-7.59,3.41-11.35,3.53
				C700.64,1505.17,691.15,1500.92,691.15,1500.92z"/>
		</g>
		<g>
			<g>
				<path class="st19" d="M653.87,1318.02L653.87,1318.02c-1.45,0.27-2.42,1.68-2.16,3.13l4.16,22.57c0.27,1.45,1.68,2.42,3.13,2.16
					l0,0c1.45-0.27,2.42-1.68,2.16-3.13l-4.16-22.57C656.73,1318.72,655.32,1317.75,653.87,1318.02z"/>
			</g>
			<g>
				<path class="st19" d="M660.64,1316.77L660.64,1316.77c-1.45,0.27-2.42,1.68-2.16,3.13l4.65,25.24c0.27,1.45,1.68,2.42,3.13,2.16
					l0,0c1.45-0.27,2.42-1.68,2.16-3.13l-4.65-25.24C663.5,1317.48,662.09,1316.51,660.64,1316.77z"/>
			</g>
			<g>
				<path class="st19" d="M659.85,1303.52l-0.26,0.29c-1.28,1.47-1.12,3.71,0.34,4.98l12.71,11.06c1.47,1.28,3.71,1.12,4.98-0.34
					l0.26-0.3c1.28-1.47,1.12-3.71-0.34-4.98l-12.71-11.06C663.37,1301.9,661.13,1302.05,659.85,1303.52z"/>
			</g>
			<g>
				<path class="st19" d="M667.4,1315.53L667.4,1315.53c-1.45,0.27-2.42,1.68-2.16,3.13l3.73,20.23c0.27,1.45,1.68,2.42,3.13,2.16
					l0,0c1.45-0.27,2.42-1.68,2.16-3.13l-3.73-20.23C670.27,1316.23,668.86,1315.26,667.4,1315.53z"/>
			</g>
			<g>
				<path class="st19" d="M646.91,1306.01c0,0-5.25,14.44,0.52,23.7c2,3.21,21.82-1.01,22.95-5.09c1.14-4.08-2.72-17.5-2.72-17.5
					L646.91,1306.01z"/>
			</g>
			<g>
				<path class="st19" d="M649.57,1318.79l-1.32,0.24c-2.05,0.38-3.42,2.37-3.05,4.42l3.32,18c0.38,2.05,2.37,3.42,4.42,3.05
					l1.32-0.24c2.05-0.38,3.43-2.37,3.05-4.42l-3.32-18C653.61,1319.79,651.62,1318.41,649.57,1318.79z"/>
			</g>
		</g>
		<g>
			<g>
				<path class="st19" d="M671.74,1309.06c2.71-29.86,8.93-72.54,23.17-106.35c3.3-7.83,4.67-10.77,7.25-15.05
					c2.07-3.44-1.64-11.01-7.49-14.61c-5.49-3.38-14.04-2.83-15.39-1.15c-2.3,2.85-4.75,8.31-8.57,16.98
					c-13.27,30.12-21.22,69.04-24.44,119.21L671.74,1309.06z"/>
			</g>
		</g>
		<g>
			<path class="st19" d="M700.17,1292.23l69.69,222.58c2.73,8.77,6.13,1.64,15.12,1.8l3.92,0.07c9.25,0.16,6.54-11.44,4.85-20.75
				l-25.88-193.77c-0.52-2.34-2.24-4.2-4.5-4.85C751.15,1293.79,698.97,1283.57,700.17,1292.23z"/>
		</g>
		<g>
			<path class="st11" d="M760.73,1177.65c0,0-8.68-24.41-39.58-23.3c-30.9,1.11-54.24,41.72-60.02,129c0,0,50.61-11.1,109.89,14.79
				C771.02,1298.15,774.31,1213.23,760.73,1177.65z"/>
		</g>
		<g>
			<path class="st11" d="M788.93,1183.49l-28.39,6.71c0,0-56.28,5.63-71.22,2.92c-14.94-2.71-17.26-13.69-17.26-13.69
				s14.21-19.49,41.26-24.34c2.54-0.46,5.1-0.53,7.83-0.73c4.59-0.33,7.67,0.13,12.19,0.09
				C775.39,1154.11,788.93,1183.49,788.93,1183.49z"/>
		</g>
		<g>
			<path class="st24" d="M729.31,1385.85l-14.02-42.63c-3.15-9.59-9.64-17.59-18.26-22.53l0.55-0.95
				c8.86,5.08,15.52,13.29,18.76,23.13l14.02,42.63L729.31,1385.85z"/>
		</g>
		<g>
			<g>
				<path class="st19" d="M733.3,1154.44c-3.07-0.33-5.74-2.26-6.96-5.1l-3.83-8.89l-1.11-2.58l-6.54-15.18l1.13,15.73l0.68,9.44
					l0.19,2.69c0.16,2.2-1.38,4.14-3.54,4.53l-0.04,0.01c-1.16,1.89-2.77,5.74,2.03,7.26c5.64,1.8,14.76-2.64,18.03-7.91
					C733.33,1154.45,733.31,1154.45,733.3,1154.44z"/>
			</g>
			<g>
				<path class="st18" d="M722.52,1140.19c0,0.09-0.01,0.17-0.02,0.26c-0.37,5.07-5.8,7.44-5.8,7.44l-0.03-0.03l-0.68-9.44
					c1.66-0.61,4.02-1.23,5.4-0.55C722.11,1138.23,722.57,1138.94,722.52,1140.19z"/>
			</g>
			<g>
				<ellipse class="st19" cx="714.14" cy="1125.21" rx="14.78" ry="18.23"/>
			</g>
			<g>
				<path class="st19" d="M726.94,1127.96c-1.67,1.6-4.01,1.76-5.23,0.37c-1.21-1.4-0.84-3.82,0.83-5.42
					c1.67-1.6,4.01-1.76,5.23-0.37C728.99,1123.93,728.62,1126.36,726.94,1127.96z"/>
			</g>
			<g>
				<g>
					<path class="st22" d="M712.71,1125.39c-0.1-0.03-0.18-0.1-0.22-0.2c-0.07-0.17,0.01-0.37,0.19-0.44
						c0.1-0.04,2.36-1.2,4.35,0.97c0.13,0.14,0.12,0.35-0.01,0.48c-0.13,0.13-0.32,0.09-0.48-0.01c-1.54-1.04-3.53-0.84-3.61-0.81
						C712.85,1125.4,712.78,1125.4,712.71,1125.39z"/>
				</g>
			</g>
			<g>
				<g>
					<path class="st22" d="M700.71,1127.14c-0.1,0.01-0.21-0.02-0.28-0.1c-0.13-0.13-0.13-0.35,0.01-0.47
						c0.08-0.08,1.73-2.01,4.39-0.76c0.17,0.08,0.25,0.27,0.17,0.44c-0.08,0.17-0.26,0.21-0.44,0.17c-1.82-0.37-3.58,0.57-3.65,0.63
						C700.85,1127.1,700.78,1127.13,700.71,1127.14z"/>
				</g>
			</g>
			<g>
				<g>
					<path class="st25" d="M700.16,1134.66c-2.22-0.65-4.17-2.61-5.22-5.24c-1.71-4.28-0.51-9.04,2.67-10.61
						c1.18-0.6,2.51-0.69,3.84-0.3c2.22,0.65,4.17,2.61,5.22,5.23l0,0c1.71,4.27,0.51,9.04-2.67,10.61
						c-0.71,0.36-1.48,0.53-2.26,0.53C701.22,1134.89,700.69,1134.81,700.16,1134.66z M706.05,1123.91c-0.98-2.47-2.79-4.3-4.82-4.9
						c-1.15-0.33-2.27-0.24-3.26,0.25c-2.94,1.46-4.01,5.95-2.39,10.01c0.98,2.47,2.78,4.3,4.82,4.9c1.14,0.32,2.27,0.24,3.26-0.25
						C706.59,1132.45,707.67,1127.96,706.05,1123.91L706.05,1123.91z"/>
				</g>
			</g>
			<g class="st12">
				<path class="st18" d="M723.77,1122.06c1.19,4.33-0.71,8.98-4.23,10.39c-3.52,1.41-7.34-0.97-8.53-5.3
					c-1.19-4.33,0.71-8.98,4.23-10.39C718.77,1115.36,722.58,1117.73,723.77,1122.06z"/>
			</g>
			<g class="st12">
				<path class="st18" d="M706.81,1124.09c1.19,4.17-0.39,8.7-3.54,10.11c-3.14,1.41-6.65-0.83-7.84-5.01
					c-1.19-4.17,0.39-8.7,3.54-10.11C702.11,1117.68,705.62,1119.92,706.81,1124.09z"/>
			</g>
			<g>
				<g>
					<path class="st25" d="M714.62,1132.51c-2.27-0.92-4.01-2.99-4.76-5.69c-1.29-4.63,0.81-9.62,4.7-11.14
						c1.56-0.61,3.22-0.6,4.8,0.03c2.27,0.92,4,2.99,4.74,5.68l0,0c1.3,4.63-0.81,9.63-4.7,11.14c-0.77,0.31-1.56,0.46-2.36,0.46
						C716.23,1132.99,715.42,1132.82,714.62,1132.51z M714.83,1116.17c-3.61,1.42-5.56,6.14-4.33,10.53c0.7,2.5,2.35,4.49,4.41,5.32
						c1.38,0.54,2.85,0.55,4.22,0.02c3.62-1.42,5.56-6.14,4.33-10.53l0,0c-0.69-2.49-2.34-4.48-4.4-5.31
						c-0.7-0.28-1.43-0.43-2.16-0.43C716.21,1115.77,715.51,1115.91,714.83,1116.17z"/>
				</g>
			</g>
			<g>
				<g>
					<path class="st25" d="M706.12,1127.51c0.14,0,0.28-0.05,0.39-0.14l0,0c0.07-0.06,1.66-1.3,4.41-0.78
						c0.32,0.05,0.66-0.15,0.72-0.48c0.07-0.33-0.15-0.66-0.48-0.71c-3.32-0.69-5.34,0.96-5.43,1.03c-0.26,0.22-0.29,0.61-0.08,0.86
						C705.76,1127.43,705.94,1127.51,706.12,1127.51z"/>
				</g>
			</g>
			<g>
				<path class="st18" d="M711.73,1138.61c-0.98,0-1.99-0.19-2.98-0.69c-0.19-0.1-0.26-0.32-0.16-0.51c0.1-0.19,0.32-0.26,0.51-0.16
					c3.53,1.81,7.77-1.03,7.81-1.06c0.17-0.12,0.41-0.07,0.53,0.1c0.12,0.17,0.07,0.41-0.1,0.53
					C717.19,1136.9,714.65,1138.61,711.73,1138.61z"/>
			</g>
			<g>
				<path class="st18" d="M717.39,1137.95c-0.18,0-0.34-0.13-0.37-0.32c-0.2-1.18-0.93-1.65-0.96-1.67
					c-0.18-0.11-0.23-0.34-0.12-0.52c0.11-0.18,0.34-0.23,0.52-0.12c0.04,0.03,1.06,0.66,1.31,2.19c0.03,0.21-0.1,0.4-0.31,0.44
					C717.43,1137.95,717.41,1137.95,717.39,1137.95z"/>
			</g>
		</g>
		<g>
			<path class="st11" d="M774.34,1231.22l29.33,225.63c0,0-106.77,34.04-164.2,0c0,0,21.43-203.06,29.28-230.67L774.34,1231.22z"/>
		</g>
		<g>
			<path class="st18" d="M765.82,1501.87c0,0,0.47,8.74-1.99,11.79c-3.98,4.94-16.8,5.8-10.45,11.36
				c3.64,3.19,20.79,1.13,25.64,1.13c4.84,0,12.87,1.26,16.47-1.99c3.96-3.57-0.88-23.66-0.88-23.66s-7.36,3.89-11.1,4.24
				C775.55,1505.51,765.82,1501.87,765.82,1501.87z"/>
		</g>
		<g>
			<path class="st11" d="M672.06,1179.42c0,0-22.33,43.04-29.14,113.9c0,0,4.11,17.65,24.75,13.81l19.5-93.86l6.38-36.3
				L672.06,1179.42z"/>
		</g>
		<g>
			<path class="st18" d="M656.43,1308.37C656.42,1308.37,656.42,1308.37,656.43,1308.37c-0.17,0-0.29-0.14-0.29-0.3
				c0.64-23.33,15.49-108.1,15.64-108.95c0.03-0.16,0.17-0.26,0.34-0.24c0.16,0.03,0.26,0.18,0.23,0.34
				c-0.15,0.85-14.99,85.58-15.63,108.87C656.71,1308.24,656.58,1308.37,656.43,1308.37z"/>
		</g>
		<g>
			<path class="st18" d="M721.96,1114.55c-1.6-2.87-5.58-3.63-8.75-2.77c-1.09,0.29-2.16,0.81-3.07,1.65
				c-3.67,3.39-10.48,2.28-12.84,0s-1.23-10.22,5.39-11.93c6.62-1.7,10.7-9.46,21.8-8.13c8.44,1.01,14.74,9.13,15.14,15.51
				c0.2,3.27-1.45,11.97-4.16,13.81C732.5,1124.7,728.48,1126.26,721.96,1114.55z"/>
		</g>
		<g>
			<path class="st11" d="M737.19,1154.49c0,0,46.56,1.05,60.43,35.06c12.03,29.5,12.1,54.37-4.54,73.28
				c-16.64,18.91-41.05,22.72-41.05,22.72s-0.6-29.78-10.51-46.58c0,0,27.35-9.33,11.3-37.36
				C739.12,1177.65,737.19,1154.49,737.19,1154.49z"/>
		</g>
		<g>
			<path class="st18" d="M742.22,1238.66c7.4,6.39,16.94,31.34,11.65,44.71s-15.07-35.53-14.8-39.27
				C739.4,1239.57,741.32,1237.89,742.22,1238.66z"/>
		</g>
		<g>
			<path class="st18" d="M741.52,1239.25c-0.11,0-0.22-0.07-0.27-0.18c-0.06-0.15,0.01-0.32,0.16-0.38
				c12.66-5.21,16.5-14.16,17.49-20.76c1.08-7.17-0.87-13.19-0.89-13.25c-0.05-0.15,0.03-0.32,0.18-0.37
				c0.15-0.05,0.32,0.03,0.37,0.18c0.08,0.24,7.81,24.56-16.92,34.73C741.6,1239.24,741.56,1239.25,741.52,1239.25z"/>
		</g>
		<g>
			<path class="st18" d="M752.07,1285.92l-0.1-0.75c14.41-1.83,27.59-11.21,27.72-11.31l0.44,0.61
				C780.01,1274.57,766.68,1284.06,752.07,1285.92z"/>
		</g>
		<g>
			
				<rect x="549.57" y="1408.21" transform="matrix(0.2499 -0.9683 0.9683 0.2499 -852.4215 1721.8529)" class="st18" width="271.11" height="5.8"/>
		</g>
		<g>
			<path class="st11" d="M651.25,1522.4c-3.92,3.86-10.58,16.48-9.23,19.96c1.35,3.47,14.3,6.95,16.61,4.44
				c2.32-2.51,3.99-17.87,2.64-21.04C659.92,1522.58,653.16,1520.52,651.25,1522.4z"/>
		</g>
		<g>
			<path class="st25" d="M713.57,1280.16c0,0,2.56-30.54,10.13-29.83c7.57,0.71,13.08,4.49,11.43,9.93
				c-1.64,5.44-7.99,22.27-11.43,22.27C720.26,1282.52,713.35,1282.38,713.57,1280.16z"/>
		</g>
		<g>
			<path class="st18" d="M740.22,1326.4c-0.17,0-0.35-0.01-0.53-0.03c-3.41-0.39-7.51-2.94-9.97-6.22
				c-2.03-2.72-2.83-5.72-2.31-8.69c0.76-4.35,2.66-7.93,4.49-11.39c2.46-4.64,5-9.44,5-16.3c0-13.53-2.03-23.37-2.05-23.47
				l-0.39-1.89l0.93,1.69c0.11,0.21,11.5,20.99,12.72,39.39c0.84,12.63-0.8,21.89-4.5,25.42
				C742.58,1325.91,741.44,1326.4,740.22,1326.4z M735.76,1262.07c0.58,3.49,1.72,11.57,1.72,21.71c0,7-2.57,11.86-5.06,16.57
				c-1.89,3.58-3.68,6.96-4.43,11.22c-0.62,3.55,0.86,6.44,2.21,8.24c2.64,3.52,6.81,5.68,9.57,5.99c1.25,0.14,2.41-0.29,3.45-1.29
				c3.57-3.41,5.15-12.51,4.32-24.97C746.52,1284.29,738.46,1267.36,735.76,1262.07z"/>
		</g>
		<g>
			<g>
				<path class="st19" d="M739.42,1241.6c0,0-23.18-1.95-29.78,3.26c-6.6,5.2-11.11,16.84-6.33,14.49
					c4.78-2.36,10.05-7.05,10.05-7.05s-10.8,10.57-7.23,12.02c3.56,1.46,12.87-7.82,12.87-7.82s-11.85,13.6-8.03,13.88
					c3.81,0.28,12.74-10.11,12.74-10.11s-10.52,13.09-6.08,13.32c4.44,0.23,8.62-10.87,12.19-9.42c3.56,1.46,15.84,7.78,21.09-1.64
					c0,0,2.22-3.09-5.38-15.84C742.3,1241.29,739.42,1241.6,739.42,1241.6z"/>
			</g>
			<g>
				<path class="st26" d="M713.61,1252.47l-0.5-0.37c0.11-0.15,2.72-3.61,5.51-3.45l-0.03,0.62
					C716.17,1249.12,713.64,1252.44,713.61,1252.47z"/>
			</g>
			<g>
				<path class="st26" d="M719.25,1256.67l-0.5-0.36c0.1-0.14,2.61-3.53,6.47-4.1l0.09,0.61
					C721.7,1253.35,719.27,1256.63,719.25,1256.67z"/>
			</g>
			<g>
				<path class="st26" d="M723.95,1260.44l-0.5-0.37c0.13-0.17,3.24-4.26,6.18-3.85l-0.08,0.61
					C726.97,1256.48,723.98,1260.4,723.95,1260.44z"/>
			</g>
		</g>
		<g>
			<g>
				<path class="st19" d="M746.27,1225.1c0,0-5.32,5.6-0.18,10.43c6.56,6.15,20.63,7.51,16.52,3.56c-3.64-3.5-10-7.24-10-7.24
					s16.3,9.28,17.07,5.24c0.77-4.04-13.36-11.83-13.36-11.83s16.72,7.54,16.21,3.48c-0.51-4.06-13.29-11.21-13.29-11.21
					s15.95,8.25,15.24,3.55c-0.7-4.7-9.81-7.29-13.42-9.27c-3.41-1.87-5.72-0.28-7.29,3.14c0,0-3.54,2.5-4,4.99
					c-0.18,0.96-1.39,1.34-1.79,1.89C747.24,1222.89,746.27,1225.1,746.27,1225.1z"/>
			</g>
		</g>
		<g>
			<path class="st18" d="M892.99,1376.05c-0.14,0-0.26-0.1-0.29-0.24c-0.05-0.33-5.34-32.95-8.96-47.45
				c-3.59-14.39-14.38-20.36-14.49-20.42c-0.14-0.08-0.19-0.25-0.12-0.39c0.08-0.14,0.25-0.19,0.39-0.12
				c0.11,0.06,11.12,6.15,14.77,20.79c3.63,14.53,8.92,47.17,8.97,47.5c0.03,0.16-0.08,0.31-0.24,0.33
				C893.02,1376.05,893.01,1376.05,892.99,1376.05z"/>
		</g>
		<g>
			<path class="st19" d="M993.76,1304.15c-2.01-8.91-4.8-14.32-4.8-14.32s-19.32-1.1-20.36,0.54c-2.4,3.78-5.45,12.29-7.78,16.11
				c-1.01,1.66-4.02,7.46-2.5,8.68c1.32,1.06,5.91-2.42,7.9-4.34c0.8,12.76,7.71,31.02,7.98,4.16c0.01,0,0.03,0,0.04,0
				c0.22,2.72,1.48,17.84,5,16.12c3.11-1.52,2.67-12.39,2.35-16.86c0.04-0.01,0.08-0.02,0.12-0.02c0.72,4.52,2.75,15.39,5.24,12.99
				c3.12-3.01,2.92-14.93,2.92-14.93s0.59,15.23,4.62,12.19c2.75-2.07,0.34-14.35-0.3-18.66
				C994.1,1305.17,993.95,1304.63,993.76,1304.15z"/>
		</g>
	</g>
	<g>
		<g>
			<g>
				<path class="st19" d="M575.96,1290.19L575.96,1290.19c1.53,0.43,2.43,2.03,2,3.56l-6.64,23.74c-0.43,1.53-2.03,2.43-3.56,2l0,0
					c-1.53-0.43-2.43-2.03-2-3.56l6.64-23.74C572.83,1290.66,574.43,1289.76,575.96,1290.19z"/>
			</g>
			<g>
				<path class="st19" d="M568.84,1288.2L568.84,1288.2c1.53,0.43,2.43,2.03,2,3.56l-7.43,26.55c-0.43,1.53-2.03,2.43-3.56,2l0,0
					c-1.53-0.43-2.43-2.03-2-3.56l7.43-26.55C565.71,1288.67,567.31,1287.77,568.84,1288.2z"/>
			</g>
			<g>
				<path class="st19" d="M570.97,1274.09l0.25,0.34c1.22,1.69,0.84,4.08-0.85,5.3l-14.67,10.6c-1.69,1.22-4.08,0.84-5.3-0.85
					l-0.25-0.34c-1.22-1.69-0.84-4.08,0.85-5.3l14.67-10.6C567.37,1272.02,569.75,1272.4,570.97,1274.09z"/>
			</g>
			<g>
				<path class="st19" d="M561.72,1286.21L561.72,1286.21c1.53,0.43,2.43,2.03,2,3.56l-5.95,21.28c-0.43,1.53-2.03,2.43-3.56,2l0,0
					c-1.53-0.43-2.43-2.03-2-3.56l5.95-21.28C558.59,1286.68,560.19,1285.78,561.72,1286.21z"/>
			</g>
			<g>
				<path class="st19" d="M584.58,1278.02c0,0,4.22,15.96-2.86,25.31c-2.45,3.24-23.25-3.2-24.07-7.68s4.6-18.46,4.6-18.46
					L584.58,1278.02z"/>
			</g>
			<g>
				<path class="st19" d="M583.04,1292.15L583.04,1292.15c1.53,0.43,2.43,2.03,2,3.55l-5.94,21.24c-0.43,1.53-2.03,2.43-3.55,2l0,0
					c-1.53-0.43-2.43-2.03-2-3.55l5.94-21.24C579.92,1292.62,581.51,1291.72,583.04,1292.15z"/>
			</g>
		</g>
		<g>
			<g>
				<path class="st19" d="M558.77,1278.87c0-32.21-2.51-78.49-14.47-116.04c-2.77-8.7-3.95-11.98-6.29-16.81
					c-1.88-3.88,2.82-11.62,9.43-14.91c6.2-3.09,15.29-1.67,16.58,0.26c2.18,3.27,4.28,9.35,7.52,19
					c11.27,33.52,16,75.93,14.58,129.92L558.77,1278.87z"/>
			</g>
		</g>
		<g>
			<path class="st18" d="M511.81,1502.8c0,0,0.23,9.12,6.4,11.69c6.17,2.57,24.06,4.89,17.37,10.76
				c-3.83,3.36-21.91,1.19-27.01,1.19c-5.1,0-9.89,2.22-13.68-1.19c-4.17-3.76,0-22.45,0-22.45s4.4,2.29,8.36,2.19
				C508.96,1504.84,511.81,1502.8,511.81,1502.8z"/>
		</g>
		<g>
			<path class="st13" d="M565.06,1227.53c0,0,1.23,41.16-11.91,120.13c-9.48,57.01-20.68,114.46-26.17,142
				c-1.96,9.85-10.25,17.06-20.07,17.45l-5.28,0.21c-10.62,0.43-19.23-8.69-18.46-19.54l13.33-186.33l3.28-61.33L565.06,1227.53z"/>
		</g>
		<g>
			<path class="st18" d="M453.36,1502.8c0,0,0.23,9.12,6.4,11.69c6.17,2.57,24.06,4.89,17.37,10.76
				c-3.83,3.36-21.91,1.19-27.01,1.19c-5.1,0-9.89,2.22-13.68-1.19c-4.17-3.76,0-22.45,0-22.45s4.4,2.29,8.36,2.19
				C450.51,1504.84,453.36,1502.8,453.36,1502.8z"/>
		</g>
		<g>
			<path class="st13" d="M506.61,1227.53c0,0,1.23,41.16-11.91,120.13c-9.48,57.01-20.68,114.46-26.17,142
				c-1.96,9.85-10.25,17.06-20.07,17.45l-5.28,0.21c-10.62,0.43-19.23-8.69-18.46-19.54l13.33-186.33l3.28-61.33L506.61,1227.53z"/>
		</g>
		<g>
			<path class="st25" d="M443.97,1132.03c0,0,6.57-26.03,55.03-26.3c69.89-0.38,63.41,63.83,69.88,161.42
				c0,0-68.84-9.73-134.04,4.26C434.84,1271.42,428.79,1171.81,443.97,1132.03z"/>
		</g>
		<g>
			<path class="st25" d="M426.08,1128.3l31.65,17.51c0,0,69.3,6.29,87.7,3.26c18.4-3.03,23.45-16.54,23.45-16.54
				s-19.59-20.27-52.9-25.69c-3.13-0.51-6.37-0.89-9.74-1.11c-5.65-0.36-11.31-0.29-16.83,0.33
				C447.19,1110.83,426.08,1128.3,426.08,1128.3z"/>
		</g>
		<g>
			<path class="st19" d="M492.33,1099.78l3.66-11.81l1.06-3.44l6.26-20.21l0.82,20.1l0.49,12.07l0.16,3.82
				c0.11,2.59,1.69,3.14,3.61,5.39c0.78,0.91,5.77,6.45,0.11,8.95c-7.05,3.12-20.23-1.6-25.24-7.78
				C483.3,1106.86,491.15,1103.59,492.33,1099.78z"/>
		</g>
		<g>
			<path class="st6" d="M508.4,1105.71c0,0,28,57.85,25.47,110.34c-2.52,52.49-2.98,157.94-2.98,157.94s26.97,8.71,46.72-6.56
				c0,0,0.96-195.96-20.82-235.08L508.4,1105.71z"/>
		</g>
		<g>
			<g>
				<path class="st21" d="M519.43,1056.74c0,0,1.28,4.89,0,11.02c-1.28,6.13-7.51-8.94-7.51-8.94L519.43,1056.74z"/>
			</g>
			<g>
				<path class="st19" d="M520.17,1069.53c-1.56-11.86-10.79-20.43-20.63-19.13c-9.83,1.29-16.54,11.95-14.99,23.81
					c1.56,11.86,10.79,20.43,20.63,19.13C515.02,1092.05,521.73,1081.39,520.17,1069.53z"/>
			</g>
			<g>
				<path class="st18" d="M484.11,1068.01l8.69-0.9c1.91-0.2,3.66-1.22,4.69-2.84c1.78-2.79,3.92-4.22,12.03-3.92
					c10.27,0.39,17.05-5.74,18.16-11.11c1.13-5.48-4.12-9.2-9.28-6.59c-5.16,2.61-2.94-3.8-7.9-4.48c-9.27-1.27-11,5.87-18.59,5.64
					c-9.95-0.3-27.77,7.26-19.32,24.77L484.11,1068.01z"/>
			</g>
			<g>
				<g>
					<path class="st22" d="M503.31,1070.96c0.09-0.06,0.16-0.16,0.17-0.28c0.02-0.2-0.13-0.38-0.33-0.39
						c-0.12-0.01-2.83-0.49-4.2,2.39c-0.09,0.18-0.02,0.4,0.16,0.49c0.18,0.09,0.36-0.01,0.49-0.16c1.27-1.57,3.39-2,3.48-1.99
						C503.17,1071.02,503.24,1071,503.31,1070.96z"/>
				</g>
			</g>
			<g>
				<path class="st22" d="M501.73,1075.63c0.23,0.84,0.91,1.38,1.52,1.22c0.61-0.17,0.92-0.98,0.69-1.82
					c-0.23-0.84-0.91-1.38-1.52-1.22C501.81,1073.98,501.5,1074.79,501.73,1075.63z"/>
			</g>
			<g>
				<g>
					<path class="st22" d="M516.78,1069.88c0.08-0.01,0.16-0.08,0.2-0.18c0.06-0.17,0-0.39-0.14-0.49
						c-0.08-0.06-1.95-1.62-3.71,0.42c-0.11,0.13-0.12,0.35-0.01,0.51c0.11,0.16,0.27,0.14,0.4,0.05c1.34-0.89,3.01-0.4,3.08-0.35
						C516.66,1069.88,516.72,1069.89,516.78,1069.88z"/>
				</g>
			</g>
			<g>
				<path class="st22" d="M513.46,1073.61c-0.11,0.86,0.31,1.62,0.94,1.7c0.63,0.08,1.22-0.56,1.33-1.42
					c0.11-0.86-0.31-1.62-0.94-1.7C514.16,1072.11,513.56,1072.75,513.46,1073.61z"/>
			</g>
			<g>
				<path class="st21" d="M472.59,1068.58c0,0,6,12.96,14.52,13.91c0,0-6.88-9.87,7.63-15.89
					C494.73,1066.6,481.41,1064.5,472.59,1068.58z"/>
			</g>
			<g>
				<path class="st19" d="M484.59,1075.73c1.82,1.16,4.14,0.78,5.17-0.85c1.04-1.63,0.4-3.89-1.42-5.04
					c-1.82-1.16-4.14-0.78-5.17,0.85C482.14,1072.32,482.77,1074.57,484.59,1075.73z"/>
			</g>
			<g>
				<path class="st21" d="M494.73,1066.6c0,0-1.16,10.87,1.05,12.93c2.21,2.06,16.82,2.94,23.64,0.3l0,0
					c0.11,6.98-4.81,13.15-11.69,14.3c-2.28,0.38-4.63,0.39-6.98-0.02h0c-4.77-0.83-9.41-2.81-11.38-7.24
					c-0.6-1.35,1.14-9.64,1.14-9.64s0.65-4.86-2.18-7.4C488.34,1069.84,491.61,1066.9,494.73,1066.6z"/>
			</g>
			<g>
				<path class="st8" d="M515.83,1083.75c0,0-5.6,1.52-11.72,0.92c0,0,0.9,5.66,7.09,4.54
					C514.8,1088.55,515.83,1083.75,515.83,1083.75z"/>
			</g>
			<g>
				<path class="st18" d="M517.3,1041.79c-2.69,0-2.94-2.32-2.94-2.35l0.49-0.05c0.01,0.08,0.21,1.9,2.45,1.9c0.04,0,0.09,0,0.13,0
					l0.02,0.49C517.4,1041.79,517.35,1041.79,517.3,1041.79z"/>
			</g>
			<g>
				<path class="st8" d="M512.44,1057.47l-0.07-0.24c0.03-0.01,2.8-0.82,5.59-2.33c2.56-1.38,5.66-3.64,5.89-6.57
					c0.13-1.59-0.14-2.65-0.81-3.23c-1.08-0.93-3.05-0.47-4.79-0.07c-0.27,0.06-0.53,0.12-0.78,0.18l-0.05-0.24
					c0.25-0.05,0.51-0.11,0.78-0.18c1.8-0.42,3.83-0.9,5.01,0.12c0.74,0.64,1.03,1.76,0.9,3.43
					C523.64,1054.15,512.9,1057.34,512.44,1057.47z"/>
			</g>
			<g>
				<path class="st8" d="M490.92,1046.06c-1.03,0-2.12-0.07-3.28-0.23l0.03-0.24c10.66,1.44,15.8-4.55,15.85-4.61l0.19,0.16
					C503.67,1041.19,499.5,1046.06,490.92,1046.06z"/>
			</g>
		</g>
		<g>
			<path class="st18" d="M556.41,1146.71c-2-7.24-8.75-16.34-8.82-16.43l0.64-0.48c0.07,0.09,6.91,9.31,8.95,16.7L556.41,1146.71z"
				/>
		</g>
		<g>
			<path class="st18" d="M492.48,1363.74l-0.79-0.13c0.05-0.34,5.47-33.9,9.19-45.91c3.76-12.12,19.81-22.23,19.97-22.33l0.42,0.68
				c-0.16,0.1-15.96,10.05-19.63,21.89C497.94,1329.89,492.54,1363.4,492.48,1363.74z"/>
		</g>
		<g>
			<path class="st6" d="M488.34,1104.13c0,0,15.23,18.89,14.02,65.79c-1.21,46.9-19.24,204.07-19.24,204.07H408.1
				c0,0-0.52-170.91,27.85-227.39C435.95,1146.6,467.63,1108.05,488.34,1104.13z"/>
		</g>
		<g>
			<path class="st6" d="M488.34,1104.13c0,0-41.25,3.95-62.26,24.17c-21.02,20.22-73.96,135.78,79.52,143.12
				c0,0-11.01-28.26,0-56.16c0,0-36.82,2.44-43.4-9.05c-6.58-11.49,29.9-78.49,29.9-78.49L488.34,1104.13z"/>
		</g>
		<g>
			<path class="st18" d="M498.6,1246.13c-1.16,21.01,4.6,25.29,7,25.29s4.33-12.57,4.33-28.08s-1.94-28.08-4.33-28.08
				S499.46,1230.64,498.6,1246.13z"/>
		</g>
		<g>
			<path class="st18" d="M505.55,1271.71c-1.81,0-52.52-0.36-90.63-32.22c-0.12-0.1-0.14-0.29-0.04-0.41
				c0.1-0.12,0.29-0.14,0.41-0.04c38.44,32.13,89.76,32.07,90.3,32.08c0,0,0,0,0,0c0.16,0,0.29,0.13,0.29,0.29
				c0,0.16-0.13,0.29-0.29,0.29C505.59,1271.71,505.58,1271.71,505.55,1271.71z"/>
		</g>
		<g>
			<path class="st18" d="M501.79,1215.65c-10.5,0-39.2-2.04-46.8-23.75c-2.46-7.03,1.24-21.9,1.4-22.53
				c0.04-0.16,0.2-0.25,0.35-0.21c0.16,0.04,0.25,0.2,0.21,0.35c-0.04,0.15-3.82,15.33-1.42,22.2
				c9.01,25.75,48.37,23.37,50.04,23.26c0.16,0,0.3,0.11,0.31,0.27c0.01,0.16-0.11,0.3-0.27,0.31
				C505.33,1215.56,503.94,1215.65,501.79,1215.65z"/>
		</g>
		<g>
			<path class="st6" d="M508.4,1105.71c0,0,43.6,2.71,60.48,26.83c16.87,24.12,23.07,147.75,23.07,147.75s-7.02,12.41-23.07,4.67
				s-31.29-103.8-31.29-103.8l7.88-42.83l-19.75-19.31L508.4,1105.71z"/>
		</g>
		<g>
			<g>
				<path class="st18" d="M524.12,1279.25l62.6-6.85c3.81-0.42,6.98-3.13,7.98-6.83l22.01-81.74c1.47-5.46-2.22-10.95-7.83-11.66
					l-62.53-7.84c-4.74-0.59-9.16,2.5-10.23,7.16l-22.08,96.43C512.6,1274.16,517.75,1279.95,524.12,1279.25z"/>
			</g>
			<g>
				<path class="st11" d="M599.45,1168.1c0,0-0.4,6.21-3.61,6.41c-3.21,0.2-28.04-1.4-28.04-2.2s1-6.87,4.01-8.04
					C574.81,1163.09,600.03,1165.05,599.45,1168.1z"/>
			</g>
		</g>
		<g>
			<g>
				<g>
					<path class="st19" d="M504.61,1244.41c0.51,1.55,2.18,2.41,3.74,1.95c5.29-1.56,10.88-3.53,16.79-5.99
						c2.88-1.2-7.83-27.3-10.3-25.81c-2.4,1.45-5.19,2.57-8.21,3.39c-0.67,0.18-1.26,0.61-1.58,1.23
						C502.85,1223.33,501.93,1236.33,504.61,1244.41z"/>
				</g>
			</g>
			<g>
				<g>
					<g>
						<path class="st19" d="M514.85,1214.56c0,0,1.71-13.43,8.25-17.9c6.54-4.48,18.27-5.26,14.81-1.62
							c-3.46,3.64-9.17,7.06-9.17,7.06s12.54-6.74,12.84-3.13c0.31,3.61-10.65,9.37-10.65,9.37s15.56-6.83,14.74-3.33
							c-0.82,3.51-12.67,8.62-12.67,8.62s14.73-5.78,13.68-1.73c-1.04,4.05-12.2,4.7-11.89,8.31c0.31,3.61,0.3,18.08-9.64,20.16
							L514.85,1214.56z"/>
					</g>
				</g>
				<g>
					<path class="st23" d="M524.27,1206.44c-0.05,0-0.09-0.01-0.14-0.02c-0.3-0.08-0.48-0.38-0.4-0.68
						c0.68-2.66,4.66-4.11,4.82-4.17c0.29-0.1,0.61,0.05,0.72,0.34c0.11,0.29-0.05,0.61-0.34,0.72c-0.04,0.01-3.58,1.31-4.11,3.4
						C524.74,1206.28,524.52,1206.44,524.27,1206.44z"/>
				</g>
				<g>
					<path class="st23" d="M525.59,1213.43c-0.08,0-0.17-0.02-0.24-0.06c-0.28-0.13-0.4-0.47-0.26-0.75
						c1.65-3.42,5.5-4.75,5.66-4.81c0.29-0.1,0.61,0.06,0.71,0.35c0.1,0.29-0.06,0.61-0.35,0.71c-0.04,0.01-3.57,1.25-5.01,4.23
						C526,1213.31,525.8,1213.43,525.59,1213.43z"/>
				</g>
				<g>
					<path class="st23" d="M527.99,1218.44c-0.03,0-0.06,0-0.09-0.01c-0.31-0.05-0.51-0.34-0.46-0.65c0.49-2.9,5.18-4.61,5.38-4.68
						c0.29-0.1,0.61,0.05,0.72,0.34c0.1,0.29-0.05,0.61-0.34,0.72c-1.19,0.42-4.33,1.94-4.65,3.81
						C528.49,1218.25,528.25,1218.44,527.99,1218.44z"/>
				</g>
			</g>
		</g>
		<g>
			<path class="st18" d="M576.29,1287.79c-0.16,0-0.28-0.12-0.29-0.28l-0.9-22.71c-0.01-0.16,0.12-0.3,0.28-0.3
				c0.17-0.01,0.3,0.12,0.3,0.28l0.9,22.71c0.01,0.16-0.12,0.3-0.28,0.3C576.3,1287.79,576.29,1287.79,576.29,1287.79z"/>
		</g>
	</g>
	<g>
		<g class="st16">
			<path class="st6" d="M1766.85,828.72h-69.92c-2.04,0-3.7-1.66-3.7-3.7v-75.76v-44.03c0-2.29,1.86-4.15,4.15-4.15h69.69
				c2.19,0,3.96,1.77,3.96,3.96v119.49C1771.04,826.84,1769.16,828.72,1766.85,828.72z"/>
		</g>
		<g>
			<path class="st13" d="M1766.85,829.81h-69.92c-2.64,0-4.79-2.15-4.79-4.79V705.24c0-2.89,2.35-5.24,5.24-5.24h69.69
				c2.78,0,5.05,2.27,5.05,5.05v119.49C1772.13,827.44,1769.76,829.81,1766.85,829.81z M1697.39,702.18c-1.69,0-3.06,1.37-3.06,3.06
				v119.78c0,1.44,1.17,2.61,2.61,2.61h69.92c1.71,0,3.09-1.39,3.09-3.09V705.04c0-1.58-1.28-2.87-2.86-2.87H1697.39z"/>
		</g>
		<g>
			<rect x="1693.24" y="748.9" class="st13" width="77.8" height="2.18"/>
		</g>
		<g>
			<rect x="1732.75" y="749.99" class="st13" width="2.18" height="78.73"/>
		</g>
	</g>
	<g>
		<g class="st16">
			<path class="st6" d="M1933.29,828.72h-69.92c-2.04,0-3.7-1.66-3.7-3.7v-75.76v-44.03c0-2.29,1.86-4.15,4.15-4.15h69.69
				c2.19,0,3.96,1.77,3.96,3.96v119.49C1937.47,826.84,1935.6,828.72,1933.29,828.72z"/>
		</g>
		<g>
			<path class="st13" d="M1933.29,829.81h-69.92c-2.64,0-4.79-2.15-4.79-4.79V705.24c0-2.89,2.35-5.24,5.24-5.24h69.69
				c2.78,0,5.05,2.27,5.05,5.05v119.49C1938.56,827.44,1936.2,829.81,1933.29,829.81z M1863.82,702.18c-1.69,0-3.06,1.37-3.06,3.06
				v119.78c0,1.44,1.17,2.61,2.61,2.61h69.92c1.71,0,3.09-1.39,3.09-3.09V705.04c0-1.58-1.28-2.87-2.87-2.87H1863.82z"/>
		</g>
		<g>
			<rect x="1859.67" y="748.9" class="st13" width="77.8" height="2.18"/>
		</g>
		<g>
			<rect x="1899.19" y="749.99" class="st13" width="2.18" height="78.73"/>
		</g>
	</g>
	<g>
		<g class="st16">
			<path class="st6" d="M523.06,812.78h-69.92c-2.04,0-3.7-1.66-3.7-3.7v-75.76V689.3c0-2.29,1.86-4.15,4.15-4.15h69.69
				c2.19,0,3.96,1.77,3.96,3.96v119.49C527.24,810.9,525.37,812.78,523.06,812.78z"/>
		</g>
		<g>
			<path class="st13" d="M523.06,813.87h-69.92c-2.64,0-4.79-2.15-4.79-4.79V689.3c0-2.89,2.35-5.24,5.24-5.24h69.69
				c2.78,0,5.05,2.26,5.05,5.05v119.49C528.34,811.5,525.97,813.87,523.06,813.87z M453.6,686.24c-1.69,0-3.06,1.37-3.06,3.06
				v119.78c0,1.44,1.17,2.61,2.61,2.61h69.92c1.71,0,3.09-1.39,3.09-3.09V689.1c0-1.58-1.29-2.87-2.87-2.87H453.6z"/>
		</g>
		<g>
			<rect x="449.44" y="732.96" class="st13" width="77.8" height="2.18"/>
		</g>
		<g>
			<rect x="488.96" y="734.05" class="st13" width="2.18" height="78.73"/>
		</g>
	</g>
	<g>
		<g class="st16">
			<path class="st6" d="M523.06,1014.62h-69.92c-2.04,0-3.7-1.66-3.7-3.7v-75.76v-44.03c0-2.29,1.86-4.15,4.15-4.15h69.69
				c2.19,0,3.96,1.77,3.96,3.96v119.49C527.24,1012.75,525.37,1014.62,523.06,1014.62z"/>
		</g>
		<g>
			<path class="st13" d="M523.06,1015.71h-69.92c-2.64,0-4.79-2.15-4.79-4.79V891.14c0-2.89,2.35-5.24,5.24-5.24h69.69
				c2.78,0,5.05,2.26,5.05,5.05v119.49C528.34,1013.35,525.97,1015.71,523.06,1015.71z M453.6,888.08c-1.69,0-3.06,1.37-3.06,3.06
				v119.78c0,1.44,1.17,2.61,2.61,2.61h69.92c1.71,0,3.09-1.39,3.09-3.09V890.95c0-1.58-1.29-2.87-2.87-2.87H453.6z"/>
		</g>
		<g>
			<rect x="449.44" y="934.8" class="st13" width="77.8" height="2.18"/>
		</g>
		<g>
			<rect x="488.96" y="935.9" class="st13" width="2.18" height="78.73"/>
		</g>
	</g>
	<g>
		<g class="st16">
			<path class="st6" d="M2099.72,828.72h-69.92c-2.04,0-3.7-1.66-3.7-3.7v-75.76v-44.03c0-2.29,1.86-4.15,4.15-4.15h69.69
				c2.19,0,3.96,1.77,3.96,3.96v119.49C2103.91,826.84,2102.04,828.72,2099.72,828.72z"/>
		</g>
		<g>
			<path class="st13" d="M2099.72,829.81h-69.92c-2.64,0-4.79-2.15-4.79-4.79V705.24c0-2.89,2.35-5.24,5.24-5.24h69.69
				c2.78,0,5.05,2.27,5.05,5.05v119.49C2105,827.44,2102.63,829.81,2099.72,829.81z M2030.26,702.18c-1.69,0-3.06,1.37-3.06,3.06
				v119.78c0,1.44,1.17,2.61,2.61,2.61h69.92c1.71,0,3.09-1.39,3.09-3.09V705.04c0-1.58-1.28-2.87-2.86-2.87H2030.26z"/>
		</g>
		<g>
			<rect x="2026.11" y="748.9" class="st13" width="77.8" height="2.18"/>
		</g>
		<g>
			<rect x="2065.62" y="749.99" class="st13" width="2.18" height="78.73"/>
		</g>
	</g>
	<g>
		<g class="st16">
			<path class="st6" d="M2266.16,828.72h-69.92c-2.04,0-3.7-1.66-3.7-3.7v-75.76v-44.03c0-2.29,1.86-4.15,4.15-4.15h69.69
				c2.19,0,3.96,1.77,3.96,3.96v119.49C2270.35,826.84,2268.47,828.72,2266.16,828.72z"/>
		</g>
		<g>
			<path class="st13" d="M2266.16,829.81h-69.92c-2.64,0-4.79-2.15-4.79-4.79V705.24c0-2.89,2.35-5.24,5.24-5.24h69.69
				c2.78,0,5.05,2.27,5.05,5.05v119.49C2271.44,827.44,2269.07,829.81,2266.16,829.81z M2196.7,702.18c-1.69,0-3.06,1.37-3.06,3.06
				v119.78c0,1.44,1.17,2.61,2.61,2.61h69.92c1.71,0,3.09-1.39,3.09-3.09V705.04c0-1.58-1.28-2.87-2.87-2.87H2196.7z"/>
		</g>
		<g>
			<rect x="2192.55" y="748.9" class="st13" width="77.8" height="2.18"/>
		</g>
		<g>
			<rect x="2232.06" y="749.99" class="st13" width="2.18" height="78.73"/>
		</g>
	</g>
	<g>
		<g class="st16">
			<path class="st6" d="M1766.85,1022.63h-69.92c-2.04,0-3.7-1.66-3.7-3.7v-75.76v-44.03c0-2.29,1.86-4.15,4.15-4.15h69.69
				c2.19,0,3.96,1.77,3.96,3.96v119.49C1771.04,1020.76,1769.16,1022.63,1766.85,1022.63z"/>
		</g>
		<g>
			<path class="st13" d="M1766.85,1023.73h-69.92c-2.64,0-4.79-2.15-4.79-4.79V899.15c0-2.89,2.35-5.24,5.24-5.24h69.69
				c2.78,0,5.05,2.27,5.05,5.05v119.49C1772.13,1021.36,1769.76,1023.73,1766.85,1023.73z M1697.39,896.09
				c-1.69,0-3.06,1.37-3.06,3.06v119.78c0,1.44,1.17,2.61,2.61,2.61h69.92c1.71,0,3.09-1.39,3.09-3.09V898.96
				c0-1.58-1.28-2.87-2.86-2.87H1697.39z"/>
		</g>
		<g>
			<rect x="1693.24" y="942.82" class="st13" width="77.8" height="2.18"/>
		</g>
		<g>
			<rect x="1732.75" y="943.91" class="st13" width="2.18" height="78.73"/>
		</g>
	</g>
	<g>
		<g class="st16">
			<path class="st6" d="M1933.29,1022.63h-69.92c-2.04,0-3.7-1.66-3.7-3.7v-75.76v-44.03c0-2.29,1.86-4.15,4.15-4.15h69.69
				c2.19,0,3.96,1.77,3.96,3.96v119.49C1937.47,1020.76,1935.6,1022.63,1933.29,1022.63z"/>
		</g>
		<g>
			<path class="st13" d="M1933.29,1023.73h-69.92c-2.64,0-4.79-2.15-4.79-4.79V899.15c0-2.89,2.35-5.24,5.24-5.24h69.69
				c2.78,0,5.05,2.27,5.05,5.05v119.49C1938.56,1021.36,1936.2,1023.73,1933.29,1023.73z M1863.82,896.09
				c-1.69,0-3.06,1.37-3.06,3.06v119.78c0,1.44,1.17,2.61,2.61,2.61h69.92c1.71,0,3.09-1.39,3.09-3.09V898.96
				c0-1.58-1.28-2.87-2.87-2.87H1863.82z"/>
		</g>
		<g>
			<rect x="1859.67" y="942.82" class="st13" width="77.8" height="2.18"/>
		</g>
		<g>
			<rect x="1899.19" y="943.91" class="st13" width="2.18" height="78.73"/>
		</g>
	</g>
	<g>
		<g class="st16">
			<path class="st6" d="M2099.72,1022.63h-69.92c-2.04,0-3.7-1.66-3.7-3.7v-75.76v-44.03c0-2.29,1.86-4.15,4.15-4.15h69.69
				c2.19,0,3.96,1.77,3.96,3.96v119.49C2103.91,1020.76,2102.04,1022.63,2099.72,1022.63z"/>
		</g>
		<g>
			<path class="st13" d="M2099.72,1023.73h-69.92c-2.64,0-4.79-2.15-4.79-4.79V899.15c0-2.89,2.35-5.24,5.24-5.24h69.69
				c2.78,0,5.05,2.27,5.05,5.05v119.49C2105,1021.36,2102.63,1023.73,2099.72,1023.73z M2030.26,896.09c-1.69,0-3.06,1.37-3.06,3.06
				v119.78c0,1.44,1.17,2.61,2.61,2.61h69.92c1.71,0,3.09-1.39,3.09-3.09V898.96c0-1.58-1.28-2.87-2.86-2.87H2030.26z"/>
		</g>
		<g>
			<rect x="2026.11" y="942.82" class="st13" width="77.8" height="2.18"/>
		</g>
		<g>
			<rect x="2065.62" y="943.91" class="st13" width="2.18" height="78.73"/>
		</g>
	</g>
	<g>
		<g class="st16">
			<path class="st6" d="M2266.16,1022.63h-69.92c-2.04,0-3.7-1.66-3.7-3.7v-75.76v-44.03c0-2.29,1.86-4.15,4.15-4.15h69.69
				c2.19,0,3.96,1.77,3.96,3.96v119.49C2270.35,1020.76,2268.47,1022.63,2266.16,1022.63z"/>
		</g>
		<g>
			<path class="st13" d="M2266.16,1023.73h-69.92c-2.64,0-4.79-2.15-4.79-4.79V899.15c0-2.89,2.35-5.24,5.24-5.24h69.69
				c2.78,0,5.05,2.27,5.05,5.05v119.49C2271.44,1021.36,2269.07,1023.73,2266.16,1023.73z M2196.7,896.09
				c-1.69,0-3.06,1.37-3.06,3.06v119.78c0,1.44,1.17,2.61,2.61,2.61h69.92c1.71,0,3.09-1.39,3.09-3.09V898.96
				c0-1.58-1.28-2.87-2.87-2.87H2196.7z"/>
		</g>
		<g>
			<rect x="2192.55" y="942.82" class="st13" width="77.8" height="2.18"/>
		</g>
		<g>
			<rect x="2232.06" y="943.91" class="st13" width="2.18" height="78.73"/>
		</g>
	</g>
	<g>
		<g>
			<path class="st6" d="M2541.23,1309.22c-0.31,10.04-1.04,19.99-2.2,29.8c0,0-1.01,18.84-38.2,17.31c-4-0.17-33.05-0.46-47.46-0.6
				c-4.86-0.05-9.2-3.07-10.93-7.61l-13.49-35.33c-0.47-1.25-1.05-2.44-1.71-3.58c-4.34-7.49-12.38-12.22-21.24-12.22h-53.01
				c-12.36,0-23.93,4.52-32.84,12.22c-6.63,5.72-11.8,13.2-14.75,21.9l-4.87,14.38c-2.05,6.07-7.75,10.16-14.17,10.16
				c-111.24-0.02-246.35,0.14-356.76,0.31c-5.59,0.02-10.59-3.45-12.56-8.68l-10.48-27.84c-1.44-3.82-3.51-7.26-6.07-10.22
				c-6.34-7.38-15.71-11.84-25.81-11.84h-55.91c-9.73,0-18.66,4.52-24.43,11.84c-2.43,3.04-4.28,6.59-5.42,10.48l-7.46,25.24
				c-1.97,6.69-8.13,11.29-15.1,11.29c-18.6,0.05-32.35,0.06-40,0.08c-3.79,0.02-6.88-3.07-6.88-6.88v-36.41
				c0-1.44,0.44-2.74,1.19-3.8c1.27-1.83,3.45-2.99,5.88-3.06c1.8-0.05,3.47-0.81,4.66-2.02c1.25-1.24,2.02-2.96,2.02-4.86
				c0-5.15,0.46-10.25,1.38-15.23c1.16-6.36,3.04-12.53,5.59-18.43c1.18-2.72,11.19-17.89,25.4-38.92
				c3.25-4.81,6.72-9.93,10.36-15.28c21.35-31.36,48.35-70.54,69.73-101.48c20.71-29.95,36.15-52.2,36.15-52.2
				c20.05-20.86,33.25-20.86,124.74-20.86h445.51c19.68,0,37.21,12.36,43.87,30.88c12.44,34.53,31.34,94.21,40.36,158.93
				c2.64,18.84,4.43,38.13,4.97,57.35C2541.52,1292.47,2541.52,1300.87,2541.23,1309.22z"/>
		</g>
		<g>
			<g>
				<circle class="st18" cx="1847.08" cy="1364.99" r="55.77"/>
			</g>
			<g>
				
					<ellipse transform="matrix(0.1602 -0.9871 0.9871 0.1602 203.843 2969.5674)" class="st25" cx="1847.08" cy="1364.99" rx="26.74" ry="26.74"/>
			</g>
			<g>
				<path class="st25" d="M1847.08,1400.52c-19.59,0-35.53-15.94-35.53-35.53c0-19.59,15.94-35.53,35.53-35.53
					c19.59,0,35.53,15.94,35.53,35.53C1882.6,1384.58,1866.67,1400.52,1847.08,1400.52z M1847.08,1330.99c-18.75,0-34,15.25-34,34
					c0,18.75,15.25,34,34,34c18.75,0,34-15.25,34-34C1881.08,1346.24,1865.82,1330.99,1847.08,1330.99z"/>
			</g>
		</g>
		<g>
			<g>
				<circle class="st18" cx="2367.13" cy="1364.99" r="55.77"/>
			</g>
			<g>
				
					<ellipse transform="matrix(0.1602 -0.9871 0.9871 0.1602 640.5969 3482.9102)" class="st25" cx="2367.13" cy="1364.99" rx="26.74" ry="26.74"/>
			</g>
			<g>
				<path class="st25" d="M2367.13,1400.52c-19.59,0-35.53-15.94-35.53-35.53c0-19.59,15.94-35.53,35.53-35.53
					c19.59,0,35.53,15.94,35.53,35.53C2402.66,1384.58,2386.72,1400.52,2367.13,1400.52z M2367.13,1330.99c-18.75,0-34,15.25-34,34
					c0,18.75,15.25,34,34,34c18.75,0,34-15.25,34-34C2401.13,1346.24,2385.88,1330.99,2367.13,1330.99z"/>
			</g>
		</g>
		<g>
			<path class="st18" d="M1922.04,1112.09h31.31c6.72,0,12.17,5.45,12.17,12.17v77.85c0,6.72-5.45,12.16-12.17,12.16h-100.98
				c-9.63,0-15.44-10.66-10.22-18.76l39.65-61.49C1890.62,1120.35,1905.77,1112.09,1922.04,1112.09z"/>
		</g>
		<g>
			<rect x="1860.13" y="1088.3" class="st18" width="643.18" height="1.53"/>
		</g>
		<g>
			<path class="st18" d="M2133.41,1216.4h-112.71c-7.7,0-13.94-6.24-13.94-13.94v-78.58c0-7.7,6.24-13.94,13.94-13.94h112.71
				c7.7,0,13.94,6.24,13.94,13.94v78.58C2147.35,1210.16,2141.11,1216.4,2133.41,1216.4z"/>
		</g>
		<g>
			<path class="st18" d="M2302.62,1217.16h-114.94c-7.49,0-13.59-6.09-13.59-13.59v-80.81c0-7.49,6.09-13.59,13.59-13.59h114.94
				c7.49,0,13.59,6.09,13.59,13.59v80.81C2316.2,1211.07,2310.11,1217.16,2302.62,1217.16z M2187.68,1110.71
				c-6.65,0-12.06,5.41-12.06,12.06v80.81c0,6.65,5.41,12.06,12.06,12.06h114.94c6.65,0,12.06-5.41,12.06-12.06v-80.81
				c0-6.65-5.41-12.06-12.06-12.06H2187.68z"/>
		</g>
		<g>
			<path class="st18" d="M2468.15,1217.16h-114.94c-7.49,0-13.59-6.09-13.59-13.59v-80.81c0-7.49,6.09-13.59,13.59-13.59h114.94
				c7.49,0,13.59,6.09,13.59,13.59v80.81C2481.74,1211.07,2475.64,1217.16,2468.15,1217.16z M2353.22,1110.71
				c-6.65,0-12.06,5.41-12.06,12.06v80.81c0,6.65,5.41,12.06,12.06,12.06h114.94c6.65,0,12.06-5.41,12.06-12.06v-80.81
				c0-6.65-5.41-12.06-12.06-12.06H2353.22z"/>
		</g>
		<g>
			<path class="st11" d="M2217.14,1036.88h-51.44v-10.61c0-14.21,11.52-25.73,25.73-25.73l0,0c14.2,0,25.72,11.51,25.72,25.72
				V1036.88z"/>
		</g>
		<g>
			<path class="st11" d="M2541.28,1284.05h-806.67c1.16-6.36,3.04-12.53,5.59-18.43c1.18-2.72,11.19-17.89,25.4-38.92h770.71
				C2538.95,1245.54,2540.74,1264.83,2541.28,1284.05z"/>
		</g>
		<g>
			<path class="st18" d="M1958.39,1248.35h-22.41c-2.95,0-5.35-2.4-5.35-5.35c0-2.95,2.4-5.35,5.35-5.35h22.41
				c2.95,0,5.35,2.4,5.35,5.35C1963.73,1245.95,1961.33,1248.35,1958.39,1248.35z M1935.97,1239.18c-2.11,0-3.82,1.71-3.82,3.82
				s1.71,3.82,3.82,3.82h22.41c2.11,0,3.82-1.71,3.82-3.82s-1.71-3.82-3.82-3.82H1935.97z"/>
		</g>
		<g>
			<path class="st18" d="M1972.1,1330.99h-24.27c-6.74,0-12.83-3.99-15.52-10.16l-8.76-20.09c-5.46-12.48-17.78-20.55-31.39-20.55
				h-65.45c-4.81,0-8.73-3.91-8.73-8.72l-0.01-67.92c0-3.23,0.92-6.36,2.67-9.08l53.03-82.36c4.63-7.18,12.47-11.46,21-11.46h80.48
				c6.06,0,10.99,4.93,10.99,10.99v205.33C1986.15,1324.69,1979.85,1330.99,1972.1,1330.99z M1894.68,1102.16
				c-8,0-15.37,4.02-19.71,10.76l-53.03,82.36c-1.59,2.47-2.43,5.32-2.42,8.25l0.01,67.92c0,3.97,3.23,7.2,7.2,7.2h65.45
				c14.22,0,27.09,8.43,32.79,21.47l8.76,20.09c2.45,5.62,7.99,9.24,14.12,9.24h24.27c6.9,0,12.52-5.61,12.52-12.51v-205.33
				c0-5.22-4.24-9.46-9.46-9.46H1894.68z"/>
		</g>
		<g>
			<path class="st18" d="M1832.85,1238.42h-8.72c-6.5,0-11.82-5.32-11.82-11.82v-23.99c0-6.5,5.32-11.82,11.82-11.82h7.9
				c2.61,0,4.74,2.13,4.74,4.74v38.97C1836.78,1236.65,1835.01,1238.42,1832.85,1238.42z"/>
		</g>
		<g>
			<rect x="1730.19" y="1316.86" class="st11" width="32.85" height="17.57"/>
		</g>
		<g>
			<path class="st18" d="M1856.9,1122.24l-55.22,82.12c-2.98,4.42-7.95,7.06-13.28,7.06h-12.44
				c21.35-31.36,48.35-70.54,69.73-101.48h4.66C1856.67,1109.94,1860.43,1117,1856.9,1122.24z"/>
		</g>
	</g>
	<g>
		<g>
			<g>
				<g>
					<path class="st27" d="M1473.07,1303.09c12.88-23.66,26.76-77.25,38.18-108.14c4.26-11.53,24.13,10.46,22.67,18.83
						c-5.06,29.09-18.53,62.12-41.18,101.2L1473.07,1303.09z"/>
				</g>
			</g>
			<g>
				<path class="st27" d="M1487.71,1326.48c0.54-0.92,1-1.73,1.36-2.33c0.3-0.5,0.51-0.98,0.66-1.43c3.81-7.61,5-13.13,5-13.13
					s-13.13-11.9-14.84-11.31c-3.93,1.35-11.12,5.76-15.02,7.18c-1.69,0.62-7.26,3.09-6.89,4.84c0.32,1.52,5.64,1.65,8.19,1.4
					c-6.93,9.69-12.75,26.87,3.25,7.6c0.01,0.01,0.02,0.02,0.03,0.03c-1.44,2.1-9.44,13.75-5.91,14.53
					c3.11,0.69,9.19-7.43,11.59-10.85c0.03,0.02,0.07,0.04,0.1,0.05c-2.14,3.69-7.09,12.71-3.9,12.41c4-0.38,10.87-9.12,10.87-9.12
					s-8.53,11.35-3.87,11.48C1480.94,1337.88,1485.15,1330.88,1487.71,1326.48L1487.71,1326.48
					C1487.71,1326.49,1487.71,1326.49,1487.71,1326.48z"/>
			</g>
		</g>
		<g>
			<path class="st18" d="M1529.41,1487.55c0,0,0.51,7.28-4.24,9.8c-4.76,2.52-18.93,5.72-13.12,9.89c3.33,2.39,17.67-0.71,21.76-1.1
				c4.09-0.39,8.11,1.02,10.89-1.99c3.06-3.31-1.72-17.88-1.72-17.88s-3.36,2.16-6.54,2.38
				C1531.85,1488.96,1529.41,1487.55,1529.41,1487.55z"/>
		</g>
		<g>
			<path class="st25" d="M1513.04,1263.4c0,0-5.16,32.55-2.65,96.54c1.81,46.2,4.94,92.92,6.55,115.33
				c0.57,8.02,6.47,14.57,14.28,15.87l4.2,0.7c8.45,1.41,16.26-4.97,16.74-13.65l8.22-149.22l3.59-49L1513.04,1263.4z"/>
		</g>
		<g>
			<path class="st18" d="M1621.37,1483.3c0,0,4.11,6.06,1.25,10.59s-13.53,14.33-6.4,15.06c4.09,0.42,14.95-9.37,18.31-11.73
				c3.35-2.36,7.54-3.13,8.44-7.11c0.99-4.38-10.48-14.65-10.48-14.65s-1.82,3.54-4.47,5.3
				C1624.19,1483.31,1621.37,1483.3,1621.37,1483.3z"/>
		</g>
		<g>
			<path class="st25" d="M1541.29,1272.49c0,0-13.65,14.64,7.26,75.23c15.1,43.74,49.75,105.6,57.77,126.61
				c2.87,7.52,10.41,12.11,18.27,11.13l4.22-0.53c8.5-1.06,14.14-9.39,12.09-17.85l-35.3-145.28l-10.74-47.96L1541.29,1272.49z"/>
		</g>
		<g>
			<path class="st18" d="M1615.91,1337.81c-56.26-11.58-107.18-9.04-107.18-9.04c0-52.47,0.99-96.61,6.26-126.94v-0.01
				c0.82-4.75,2.98-10.87,7.06-16.56c1.77-2.47,3.91-4.85,6.45-7c6.58-5.56,15.92-9.58,28.86-9.49
				c38.69,0.26,46.7,23.42,47.75,27.23c0.1,0.34,0.14,0.53,0.14,0.53c5.96,18.95,8.71,49.55,9.94,77.44
				c0.17,3.9,0.31,7.74,0.43,11.48C1616.51,1314.37,1615.91,1337.81,1615.91,1337.81z"/>
		</g>
		<g>
			<path class="st18" d="M1618.15,1191.29l-13.03,4.7l-13.42,4.84c0,0-34.04,3.07-56.03,3.26c-4.16,0.04-7.89-0.03-10.87-0.24
				c-1.45-0.1-2.73-0.24-3.8-0.41c-2.24-0.37-4.24-0.93-6.01-1.61c-9.95-3.83-12.89-11.62-12.89-11.62s7-7.17,19.58-13.26
				c1.98-0.96,4.1-1.89,6.35-2.75c4.95-1.91,10.54-3.54,16.72-4.54c2.52-0.42,5.14-0.71,7.85-0.89c4.56-0.29,9.12-0.23,13.57,0.27
				C1600.19,1172.85,1618.15,1191.29,1618.15,1191.29z"/>
		</g>
		<g>
			<path class="st27" d="M1550.76,1175.9c5.69,2.5,16.31-1.28,20.35-6.22c-0.03-0.01-6.35-2.63-7.31-5.68l-2.16-6.91l-0.79-2.54
				l-0.86-2.75l-5.04-16.16l-0.67,16.08l-0.24,5.98l-0.15,3.63v0.04l-0.12,3.06c-0.09,2.07-1.36,2.51-2.92,4.31
				C1550.22,1169.47,1546.2,1173.91,1550.76,1175.9z"/>
		</g>
		<g>
			<path class="st18" d="M1553.89,1161.34c6.26-0.62,7.76-4.25,7.76-4.25l-7.61,0.61L1553.89,1161.34z"/>
		</g>
		<g>
			<path class="st18" d="M1545.52,1126.15c0,0,0.23-17.55,4.16-19.18s1.31,13.97,1.31,13.97s2.45-17.54,10.31-17.87
				c7.86-0.33-3.6,15.91-3.6,15.91s11.15-16.3,16.55-14c5.4,2.31-8.85,12.22-8.85,12.22s15.4-11.87,18.84-9.11
				c3.44,2.76-9.99,10.88-9.99,10.88s15.07-4.69,15.8-1.77s-12.21,6.58-12.21,6.58s18.67-1.17,15.23,3.03
				c-3.44,4.2-14.9,3.22-14.9,3.22s18.34,1.14,13.92,4.71c-4.42,3.58-15.56,2.27-15.56,2.27s11.96,0.21,7.86,3.36
				c-4.09,3.15-12.83,2.02-12.83,2.02L1545.52,1126.15z"/>
		</g>
		<g>
			<path class="st27" d="M1541.36,1139.81c1.26-9.49,8.7-16.34,16.63-15.31c7.93,1.03,13.34,9.56,12.08,19.05
				c-1.26,9.49-8.7,16.34-16.63,15.31C1545.52,1157.82,1540.11,1149.29,1541.36,1139.81z"/>
		</g>
		<g>
			<g>
				<path class="st22" d="M1554.95,1140.95c-0.08-0.05-0.13-0.13-0.14-0.22c-0.01-0.16,0.11-0.3,0.27-0.31
					c0.1-0.01,2.28-0.4,3.38,1.91c0.07,0.15,0.01,0.32-0.13,0.39c-0.15,0.07-0.29-0.01-0.39-0.13c-1.02-1.25-2.73-1.6-2.81-1.59
					C1555.07,1141,1555.01,1140.98,1554.95,1140.95z"/>
			</g>
		</g>
		<g>
			<path class="st22" d="M1556.23,1144.69c-0.18,0.67-0.73,1.11-1.22,0.97c-0.49-0.13-0.74-0.78-0.55-1.45s0.73-1.11,1.22-0.97
				C1556.16,1143.36,1556.41,1144.02,1556.23,1144.69z"/>
		</g>
		<g>
			<g>
				<path class="st22" d="M1544.1,1140.09c-0.07-0.01-0.13-0.06-0.16-0.15c-0.05-0.14,0-0.32,0.11-0.39
					c0.07-0.05,1.57-1.3,2.99,0.34c0.09,0.1,0.09,0.28,0.01,0.41c-0.09,0.12-0.22,0.11-0.32,0.04c-1.08-0.71-2.43-0.32-2.49-0.28
					C1544.19,1140.08,1544.14,1140.09,1544.1,1140.09z"/>
			</g>
		</g>
		<g>
			<path class="st22" d="M1546.77,1143.07c0.09,0.69-0.25,1.3-0.76,1.36c-0.5,0.06-0.98-0.45-1.07-1.14
				c-0.09-0.69,0.25-1.3,0.76-1.36S1546.69,1142.38,1546.77,1143.07z"/>
		</g>
		<g>
			<path class="st8" d="M1546.27,1149.88c0,0,4.51,1.21,9.44,0.74c0,0-0.72,4.53-5.71,3.63
				C1547.1,1153.72,1546.27,1149.88,1546.27,1149.88z"/>
		</g>
		<g>
			<path class="st11" d="M1541.62,1138.26c0,0,1.5-8.22,11.99-5.78c10.48,2.44,11.46,19.03,13.84,18.7
				c2.38-0.33,6.96-8.13,6.8-11.46s-2.05-12.8-16.26-15.22c-14.2-2.42-14.53,1.81-16.66,5.71
				C1539.2,1134.11,1539.5,1138.98,1541.62,1138.26z"/>
		</g>
		<g>
			<path class="st27" d="M1567.41,1147.67c-1.47,0.93-3.33,0.62-4.17-0.68s-0.32-3.11,1.15-4.03c1.47-0.93,3.33-0.62,4.17,0.68
				C1569.39,1144.93,1568.87,1146.74,1567.41,1147.67z"/>
		</g>
		<g>
			<g>
				<g>
					<path class="st25" d="M1540.42,1149.85c-1.98-1.14-3.43-3.79-3.88-7.08c-0.73-5.36,1.42-10.8,4.78-12.13
						c1.25-0.51,2.54-0.4,3.73,0.28c1.98,1.14,3.43,3.79,3.88,7.07l0,0c0.73,5.35-1.42,10.8-4.78,12.14
						c-0.75,0.3-1.52,0.38-2.27,0.25C1541.38,1150.3,1540.89,1150.12,1540.42,1149.85z M1548.29,1138.09
						c-0.42-3.1-1.75-5.56-3.56-6.61c-1.02-0.58-2.11-0.67-3.17-0.25c-3.11,1.24-5.08,6.38-4.38,11.47
						c0.42,3.09,1.75,5.56,3.56,6.61c1.02,0.57,2.11,0.67,3.16,0.25C1547.02,1148.31,1548.98,1143.16,1548.29,1138.09
						L1548.29,1138.09z"/>
				</g>
			</g>
			<g class="st14">
				<path class="st8" d="M1548.99,1138.43c0.26,5.15-2.21,10.25-5.5,11.4c-3.29,1.15-6.17-2.09-6.42-7.24
					c-0.26-5.15,2.21-10.25,5.5-11.4C1545.85,1130.04,1548.73,1133.28,1548.99,1138.43z"/>
			</g>
		</g>
		<g>
			<g class="st14">
				<path class="st8" d="M1564.96,1141.98c0.26,5.12-2.49,10.1-6.13,11.11c-3.64,1.01-6.81-2.32-7.06-7.45
					c-0.26-5.12,2.49-10.1,6.13-11.11C1561.54,1133.53,1564.71,1136.86,1564.96,1141.98z"/>
			</g>
			<g>
				<g>
					<path class="st25" d="M1554.13,1152.34c-1.98-1.42-3.22-4.07-3.39-7.26c-0.3-5.48,2.72-10.81,6.73-11.89
						c1.61-0.43,3.19-0.15,4.57,0.84c1.98,1.42,3.21,4.07,3.38,7.25l0,0c0.3,5.49-2.71,10.82-6.73,11.89
						c-0.8,0.22-1.58,0.26-2.34,0.13C1555.57,1153.16,1554.82,1152.84,1554.13,1152.34z M1557.63,1133.79
						c-3.73,1.01-6.54,6.05-6.26,11.25c0.16,2.96,1.33,5.5,3.13,6.79c1.21,0.84,2.6,1.1,4.02,0.73c3.73-1.01,6.54-6.05,6.26-11.25
						l0,0c-0.16-2.95-1.33-5.48-3.12-6.78c-0.61-0.44-1.28-0.72-1.97-0.85C1559.02,1133.57,1558.33,1133.61,1557.63,1133.79z"/>
				</g>
			</g>
		</g>
		<g>
			<g>
				<path class="st25" d="M1547.53,1142.58c0.13,0.04,0.27,0.04,0.4-0.02l0,0c0.08-0.03,1.91-0.71,4.3,0.56
					c0.28,0.14,0.65,0.05,0.81-0.24c0.16-0.29,0.05-0.65-0.24-0.79c-2.86-1.59-5.21-0.66-5.31-0.63c-0.3,0.13-0.45,0.47-0.32,0.77
					C1547.23,1142.41,1547.37,1142.53,1547.53,1142.58z"/>
			</g>
		</g>
		<g>
			<path class="st24" d="M1557.52,1372.19c-0.05-0.12-4.88-11.92-9.46-24.29c-4.45-12.01-14.01-12.87-14.1-12.88l0.08-1.05
				c0.1,0.01,10.32,0.89,15.02,13.56c4.58,12.35,9.4,24.13,9.45,24.25L1557.52,1372.19z"/>
		</g>
		<g>
			<g>
				<g>
					<path class="st27" d="M1640.24,1303.79c-7.7-25.78-35.98-73.47-49.86-103.35c-5.18-11.15,22.38-14.14,27.31-7.19
						c17.1,24.16,33.2,61.63,44.95,105.19L1640.24,1303.79z"/>
				</g>
			</g>
			<g>
				<path class="st27" d="M1667.25,1310.11c-0.28-1.03-0.52-1.93-0.69-2.61c-0.14-0.56-0.33-1.05-0.55-1.47
					c-2.71-8.06-5.8-12.8-5.8-12.8s-17.76,0.77-18.56,2.38c-1.83,3.71-3.78,11.86-5.54,15.61c-0.76,1.62-2.95,7.27-1.44,8.25
					c1.31,0.86,5.17-2.79,6.79-4.74c1.98,11.72,10.08,27.96,7.7,3.11c0.01,0,0.03,0,0.04,0c0.47,2.49,3.09,16.36,6.15,14.44
					c2.7-1.69,1.23-11.7,0.5-15.8c0.04-0.01,0.07-0.02,0.11-0.03c1.1,4.11,4.02,13.97,6.06,11.52c2.56-3.07,1.21-14.07,1.21-14.07
					s2.03,14.02,5.42,10.84C1670.56,1322.93,1668.57,1315.02,1667.25,1310.11L1667.25,1310.11
					C1667.26,1310.11,1667.26,1310.11,1667.25,1310.11z"/>
			</g>
		</g>
		<g>
			<path class="st18" d="M1618.55,1192.09c1.24,4.26-15.08,18.32-29.43,22.74c-14.34,4.42-21.27-2.47-22.51-6.72
				s9.38-11.29,23.73-15.71C1604.68,1187.97,1617.31,1187.83,1618.55,1192.09z"/>
		</g>
		<g>
			<g>
				<path class="st28" d="M1609.46,1277.73c0,0-43.58-12.35-59.22-28.81c0,0-8.31,29.32,18.29,37.99
					C1595.12,1295.58,1609.46,1277.73,1609.46,1277.73z"/>
			</g>
			<g>
				<path class="st28" d="M1615.62,1285.45c-1.61-0.24-5.94-0.98-11.92-2.65c-13.71-3.83-36.07-12.57-53.98-31.49
					c-10.98-11.59-20.29-27.01-24.92-47.46c-1.31-5.78-2.25-11.97-2.74-18.59c-0.2-2.7-0.33-5.46-0.38-8.31
					c1.98-0.96,4.1-1.89,6.35-2.75c0.1,1.13,0.26,2.49,0.48,4.07c0.87,6.09,2.81,15.31,7.16,25.83
					c9.68,23.45,31.3,53.39,79.52,69.87C1615.36,1277.86,1615.5,1281.7,1615.62,1285.45z"/>
			</g>
			<g>
				<g>
					<path class="st18" d="M1596.38,1276.96c-0.24-0.06-24.32-6.59-36.85-20.15l0.48-0.44c12.4,13.42,36.3,19.9,36.54,19.97
						L1596.38,1276.96z"/>
				</g>
			</g>
		</g>
	</g>
	<g>
		<g>
			<path class="st19" d="M1371.94,1252.01c-0.28-6.22-1.51-10.18-1.51-10.18s-12.83-3-13.73-2.03c-2.06,2.25-5.13,7.61-7.15,9.9
				c-0.88,0.99-3.59,4.54-2.72,5.53c0.76,0.87,4.26-0.93,5.82-1.99c-0.99,8.66,1.46,21.72,4.86,3.73c0.01,0,0.02,0,0.03,0.01
				c-0.17,1.85-1.15,12.15,1.43,11.41c2.27-0.66,3.27-8,3.59-11.04c0.03,0,0.06,0,0.09,0c-0.06,3.12,0,10.65,1.96,9.33
				c2.46-1.65,3.75-9.68,3.75-9.68s-1.43,10.29,1.64,8.72c2.09-1.07,1.94-9.59,2.04-12.55
				C1372.04,1252.73,1372.01,1252.35,1371.94,1252.01z"/>
		</g>
		<g>
			<path class="st11" d="M1355.54,1161.18c0,0,15.16,30.51,18.94,80.31c0,0-5.45,8.57-19.98,5.58l-10.13-62.37l-3.98-25.55
				L1355.54,1161.18z"/>
		</g>
		<g>
			<path class="st8" d="M1261.56,1163.15c-0.2-0.19-4.78-4.78-1.9-15.94c2.65-10.28,17.37-12.89,21.82-13.45l0.13-0.02l0.14,0.78
				c-0.02,0-0.08,0.01-0.17,0.02c-3.08,0.39-18.56,2.81-21.15,12.86c-2.75,10.67,1.64,15.13,1.68,15.17L1261.56,1163.15z"/>
		</g>
		<g>
			<path class="st19" d="M1284.86,1284.05c3.49,10.88-0.59,41.45-4.71,65.63c-3.09,18.09-6.2,32.6-6.2,32.6l5.31,4.76l5.46-2.99
				c6.31-9.65,11.55-19.16,15.9-28.42c30.06-64.1,17.15-116.22,17.15-116.22S1278.76,1265.02,1284.86,1284.05z"/>
		</g>
		<g>
			<path class="st25" d="M1273.95,1382.27l5.31,4.76l5.46-2.99c6.31-9.65,11.55-19.16,15.9-28.42c-4.21-0.36-10.96-1.73-20.46-5.95
				C1277.06,1367.76,1273.95,1382.27,1273.95,1382.27z"/>
		</g>
		<g>
			<path class="st18" d="M1284.71,1384.05c0,0-0.82,5.79,2.84,8.06c3.66,2.27,14.79,5.62,9.92,8.62c-2.8,1.72-14.07-1.55-17.31-2.08
				c-3.25-0.54-6.53,0.37-8.58-2.19c-2.26-2.81,2.37-14.18,2.37-14.18s2.56,1.91,5.09,2.26
				C1282.68,1385.04,1284.71,1384.05,1284.71,1384.05z"/>
		</g>
		<g>
			<path class="st19" d="M1313.52,1286.35c5.24,10.17,6.27,40.99,6.19,65.51c-0.06,18.35-0.74,33.17-0.74,33.17l6.02,3.84l4.89-3.84
				c4.63-10.54,8.23-20.78,10.99-30.62c19.07-68.12-2.27-117.43-2.27-117.43S1304.36,1268.57,1313.52,1286.35z"/>
		</g>
		<g>
			<path class="st8" d="M1308.55,1111.33c0,0,0.72,8.19-9.89,10.17c-10.62,1.98-8.49,7.9-6.37,11.06
				c2.12,3.16-12.08-3.03-25.21,8.69c-13.14,11.72,6.37,23.18,16.99,21.73c10.62-1.45,50.88-10.27,52.84-13.3
				c1.96-3.03,4.67-11.33-0.69-12.46c-9.6-2.02,2.13-9.42-4.11-12.77C1325.86,1121.1,1308.55,1111.33,1308.55,1111.33z"/>
		</g>
		<g>
			<path class="st11" d="M1347.76,1160.87c0,0,14.53,25.03-1.19,30.69c0,0,8.76,21.55,9.16,45.41c0.4,23.86,11.95,96.78,6.9,102.36
				c-11.36,12.53-27.6-5.25-37.31,1.24c-13.34,8.9-26.21-6.21-37.66-5.42c-11.45,0.79-25.21,7.84-24.82-8.13
				c0.18-7.47,15.8-173.82,23.59-177.79c7.8-3.97,20.82-10.09,39.09-7.41C1343.78,1144.48,1347.76,1160.87,1347.76,1160.87z"/>
		</g>
		<g>
			<path class="st11" d="M1270.89,1160.63c0,0,13.4-20.38,40.92-19.49s28.86,16.17,28.86,16.17l-58.71,9.91L1270.89,1160.63z"/>
		</g>
		<g>
			<path class="st19" d="M1307.97,1141.24c2.7-0.29,5.04-1.97,6.11-4.44l3.36-7.75l0.98-2.25l5.74-13.22l-0.99,13.7l-0.6,8.22
				l-0.17,2.34c-0.14,1.91,1.21,3.61,3.11,3.94l0.03,0.01c1.02,1.65,2.43,5-1.78,6.33c-4.95,1.56-12.96-2.3-15.83-6.89
				C1307.94,1141.25,1307.95,1141.25,1307.97,1141.24z"/>
		</g>
		<g>
			<path class="st8" d="M1308.55,1111.33c0,0,0.53,2.25-0.77,6.86c-1.91,6.74,5.86,9.56,7.85,7.63c0.25-0.24-0.08-11.71-0.08-11.71
				l-2.48-1.46L1308.55,1111.33z"/>
		</g>
		<g>
			<path class="st18" d="M1317.43,1128.83c0,0.08,0.01,0.15,0.01,0.23c0.33,4.42,5.09,6.48,5.09,6.48l0.03-0.02l0.6-8.22
				c-1.46-0.53-3.53-1.07-4.74-0.48C1317.79,1127.12,1317.39,1127.74,1317.43,1128.83z"/>
		</g>
		<g>
			<ellipse class="st19" cx="1324.78" cy="1115.78" rx="12.97" ry="15.88"/>
		</g>
		<g>
			<path class="st8" d="M1329.92,1103.59c-0.36,0.49,1.68,8.66-13.57,10.61c-15.25,1.95-6.09-16.41,5.16-16.83
				c16.25-0.6,18.62,10.24,17.05,14.15C1337.01,1115.42,1329.92,1103.59,1329.92,1103.59z"/>
		</g>
		<g>
			<path class="st8" d="M1318.03,1111.6c0,0-6.23,6.52-4.07,13.19c0,0-3.62-3.92-3.7-5.38s0.88-6.75,0.88-6.75L1318.03,1111.6z"/>
		</g>
		<g>
			<path class="st19" d="M1313.54,1118.17c1.47,1.39,3.52,1.54,4.59,0.32c1.07-1.22,0.74-3.33-0.73-4.72
				c-1.47-1.39-3.52-1.54-4.59-0.32C1311.75,1114.67,1312.08,1116.78,1313.54,1118.17z"/>
		</g>
		<g>
			<g>
				<path class="st22" d="M1326.04,1115.93c0.09-0.02,0.16-0.09,0.2-0.17c0.06-0.15-0.01-0.32-0.16-0.38
					c-0.09-0.04-2.07-1.05-3.82,0.85c-0.11,0.12-0.11,0.3,0.01,0.41s0.28,0.08,0.42-0.01c1.36-0.9,3.1-0.73,3.17-0.71
					C1325.91,1115.95,1325.98,1115.95,1326.04,1115.93z"/>
			</g>
		</g>
		<g>
			<path class="st22" d="M1323.7,1119.15c-0.02,0.7,0.37,1.28,0.88,1.29s0.94-0.54,0.97-1.24c0.02-0.7-0.37-1.28-0.88-1.29
				C1324.16,1117.9,1323.72,1118.45,1323.7,1119.15z"/>
		</g>
		<g>
			<g>
				<path class="st22" d="M1336.57,1117.46c0.09,0.01,0.18-0.02,0.25-0.09c0.11-0.12,0.11-0.3-0.01-0.41
					c-0.07-0.07-1.52-1.75-3.86-0.66c-0.15,0.07-0.22,0.24-0.15,0.39c0.07,0.15,0.23,0.18,0.39,0.15c1.6-0.32,3.15,0.49,3.2,0.55
					C1336.45,1117.42,1336.51,1117.45,1336.57,1117.46z"/>
			</g>
		</g>
		<g>
			<path class="st22" d="M1333.18,1119.55c-0.29,0.64-0.15,1.32,0.32,1.53c0.47,0.21,1.08-0.14,1.37-0.78
				c0.29-0.64,0.14-1.32-0.32-1.53C1334.08,1118.57,1333.46,1118.91,1333.18,1119.55z"/>
		</g>
		<g>
			<path class="st25" d="M1318.97,1385.02l6.02,3.84l4.89-3.84c4.63-10.54,8.23-20.78,10.99-30.62c-4.22,0.33-11.1,0.07-21.16-2.54
				C1319.65,1370.2,1318.97,1385.02,1318.97,1385.02z"/>
		</g>
		<g>
			<path class="st18" d="M1329.89,1385.02c0,0,0.15,5.84,4.13,7.49s15.52,3.13,11.21,6.89c-2.47,2.15-14.13,0.76-17.42,0.76
				c-3.29,0-6.38,1.42-8.83-0.76c-2.69-2.41,0-14.38,0-14.38s2.84,1.47,5.4,1.4C1328.05,1386.33,1329.89,1385.02,1329.89,1385.02z"
				/>
		</g>
		<g class="st14">
			
				<ellipse transform="matrix(0.0941 -0.9956 0.9956 0.0941 85.9072 2330.1638)" class="st8" cx="1323.31" cy="1117.88" rx="7.33" ry="5.01"/>
		</g>
		<g class="st14">
			<path class="st8" d="M1331.69,1117.6c-0.74,3.81,0.51,7.87,2.8,9.08c2.28,1.21,4.74-0.9,5.47-4.7c0.74-3.8-0.51-7.87-2.8-9.08
				C1334.88,1111.69,1332.43,1113.79,1331.69,1117.6z"/>
		</g>
		<g>
			<g>
				<path class="st11" d="M1321.25,1124.79c-2.78-1.57-3.99-6.12-2.7-10.15l0,0c0.75-2.34,2.18-4.07,3.93-4.75
					c1.21-0.47,2.44-0.38,3.56,0.25c2.78,1.57,3.99,6.12,2.7,10.15c-0.75,2.34-2.18,4.07-3.93,4.75c-0.65,0.25-1.31,0.34-1.96,0.28
					C1322.3,1125.25,1321.77,1125.08,1321.25,1124.79z M1322.66,1110.34c-1.59,0.62-2.95,2.28-3.64,4.45l0,0
					c-1.22,3.82-0.11,8.12,2.48,9.58c0.99,0.56,2.07,0.63,3.14,0.22c1.59-0.62,2.95-2.28,3.64-4.45c1.22-3.82,0.11-8.11-2.48-9.58
					c-0.45-0.26-0.93-0.41-1.41-0.46C1323.81,1110.03,1323.23,1110.11,1322.66,1110.34z"/>
			</g>
		</g>
		<g>
			<path class="st18" d="M1305.85,1190.56c-2.42,0-5.09-0.27-8-0.8c-0.1-0.02-0.16-0.11-0.14-0.21c0.02-0.1,0.11-0.17,0.21-0.14
				c9.07,1.66,15.75,0.72,19.85-2.82l0.15-0.13c0.08-0.06,0.19-0.05,0.25,0.02c0.06,0.08,0.05,0.19-0.02,0.25l-0.15,0.13
				C1315.13,1189.32,1311.06,1190.56,1305.85,1190.56z"/>
		</g>
		<g>
			<path class="st11" d="M1327.77,1142.22c0,0,21.15,3.39,28.51,20.55c0.49,1.14-4.55,7.51-9.72,7.48
				C1339.33,1170.22,1327.77,1142.22,1327.77,1142.22z"/>
		</g>
		<g>
			<path class="st11" d="M1331.09,1127.08c0,0-0.59-1.02-1.9-0.65c-0.89,0.25-1.45-0.59-2.27-0.43c-1.92,0.36-0.69,2.68,1.35,2.78
				C1330.34,1128.87,1331.09,1127.08,1331.09,1127.08z"/>
		</g>
		<g>
			<g>
				<path class="st24" d="M1329.24,1127.67c-1.15,0-2.51-0.35-3.62-1.62c-0.06-0.06-0.05-0.16,0.01-0.21
					c0.06-0.06,0.16-0.05,0.21,0.01c2.31,2.63,5.72,1.05,5.75,1.04c0.08-0.03,0.17,0,0.2,0.07c0.04,0.08,0,0.17-0.07,0.2
					C1331.71,1127.17,1330.62,1127.67,1329.24,1127.67z"/>
			</g>
			<g>
				<path class="st24" d="M1325.39,1126.63c-0.01,0-0.01,0-0.02,0c-0.08-0.01-0.14-0.09-0.13-0.17c0.05-0.39,0.31-0.79,0.78-1.2
					c0.06-0.06,0.17-0.07,0.23-0.01c0.06,0.06,0.07,0.14,0.01,0.2c-0.01,0.01-0.02,0.02-0.04,0.04c-0.51,0.44-0.65,0.79-0.68,1.01
					C1325.53,1126.57,1325.46,1126.63,1325.39,1126.63z"/>
			</g>
		</g>
		<g>
			<path class="st8" d="M1291.78,1131.39c-0.86-0.43-2.04-4.13-1.31-7.23c0.53-2.27,2.22-4.98,7.23-4.99
				c9.4-0.02,10.38-6.48,10.39-6.55l0.79,0.11c-0.01,0.07-1.09,7.21-11.17,7.23c-3.44,0.01-5.57,1.35-6.36,3.99
				c-0.87,2.93,0.33,6.42,0.8,6.73L1291.78,1131.39z"/>
		</g>
		<g>
			<g>
				<path class="st11" d="M1333.85,1126.83c-2.41-1.39-3.44-5.77-2.29-9.76l0,0c0.71-2.45,2.11-4.31,3.74-4.96
					c0.98-0.39,1.97-0.32,2.86,0.19c2.41,1.39,3.44,5.77,2.29,9.76c-0.71,2.45-2.11,4.31-3.74,4.96c-0.42,0.17-0.84,0.25-1.26,0.25
					C1334.9,1127.27,1334.36,1127.12,1333.85,1126.83z M1335.48,1112.55c-1.5,0.6-2.79,2.33-3.45,4.64l0,0
					c-1.09,3.79-0.17,7.92,2.06,9.21c0.76,0.44,1.6,0.49,2.43,0.16c1.5-0.6,2.79-2.33,3.45-4.64c1.09-3.79,0.17-7.92-2.06-9.21
					c-0.43-0.25-0.89-0.37-1.36-0.37C1336.2,1112.34,1335.84,1112.41,1335.48,1112.55z"/>
			</g>
		</g>
		<g>
			<g>
				<path class="st18" d="M1332.01,1118.81c0.14,0,0.27-0.06,0.36-0.17c0.16-0.2,0.12-0.48-0.08-0.64
					c-0.06-0.05-1.59-1.21-4.06-0.64c-0.25,0.06-0.4,0.3-0.34,0.54c0.06,0.24,0.3,0.4,0.55,0.34c2.05-0.47,3.28,0.46,3.3,0.47
					C1331.82,1118.77,1331.92,1118.81,1332.01,1118.81z"/>
			</g>
		</g>
		<g>
			<g>
				<path class="st18" d="M1303.07,1213.6c-4.58,3.92-10.48,19.24-7.2,27.45c3.28,8.2,9.33-21.81,9.16-24.11
					C1304.82,1214.16,1303.63,1213.13,1303.07,1213.6z"/>
			</g>
			<g>
				<path class="st18" d="M1303.5,1213.96c-0.02,0-0.05,0-0.07-0.01c-7.99-3.26-10.41-8.89-11.04-13.03
					c-0.68-4.48,0.56-8.25,0.57-8.29c0.03-0.09,0.13-0.14,0.23-0.11c0.09,0.03,0.14,0.13,0.11,0.23
					c-0.05,0.15-4.72,14.76,10.27,20.88c0.09,0.04,0.14,0.14,0.1,0.23C1303.64,1213.92,1303.57,1213.96,1303.5,1213.96z"/>
			</g>
			<g>
				<path class="st18" d="M1296.97,1242.61c-9.03-1.14-17.28-6.97-17.36-7.03l0.27-0.38c0.08,0.06,8.24,5.82,17.15,6.94
					L1296.97,1242.61z"/>
			</g>
			<g>
				
					<rect x="1336.6" y="1236.21" transform="matrix(0.9678 -0.2517 0.2517 0.9678 -289.0051 379.3268)" class="st18" width="3.57" height="166.51"/>
			</g>
			<g>
				<path class="st11" d="M1359.34,1387.79c2.42,2.37,6.55,10.12,5.71,12.25c-0.84,2.13-8.84,4.27-10.28,2.73
					c-1.43-1.54-2.47-10.97-1.63-12.92C1353.98,1387.9,1358.16,1386.63,1359.34,1387.79z"/>
			</g>
			<g>
				<path class="st25" d="M1320.79,1239.08c0,0-1.59-18.75-6.27-18.31c-4.68,0.43-8.09,2.76-7.07,6.09
					c1.02,3.34,4.94,13.67,7.07,13.67C1316.66,1240.53,1320.93,1240.44,1320.79,1239.08z"/>
			</g>
			<g>
				<path class="st18" d="M1304.31,1267.47c-0.76,0-1.47-0.31-2.11-0.92c-2.28-2.18-3.29-7.86-2.77-15.6
					c0.75-11.29,7.8-24.05,7.87-24.18l0.57-1.03l-0.24,1.16c-0.01,0.06-1.27,6.1-1.27,14.4c0,4.21,1.57,7.15,3.09,10
					c1.13,2.12,2.31,4.32,2.78,6.99c0.32,1.81-0.17,3.65-1.41,5.31c-1.52,2.03-4.06,3.61-6.18,3.85
					C1304.53,1267.46,1304.42,1267.47,1304.31,1267.47z M1307.07,1227.97c-1.67,3.25-6.66,13.64-7.28,23.01
					c-0.51,7.63,0.46,13.21,2.66,15.31c0.65,0.62,1.37,0.89,2.15,0.8c1.72-0.19,4.31-1.53,5.94-3.7c0.82-1.1,1.73-2.87,1.34-5.03
					c-0.46-2.61-1.57-4.69-2.74-6.89c-1.54-2.89-3.13-5.87-3.13-10.17C1306,1235.07,1306.71,1230.11,1307.07,1227.97z"/>
			</g>
			<g>
				<g>
					<path class="st19" d="M1304.8,1215.4c0,0,14.34-1.19,18.42,2c4.09,3.19,6.87,10.34,3.92,8.89c-2.96-1.45-6.22-4.33-6.22-4.33
						s6.68,6.49,4.47,7.38c-2.21,0.89-7.96-4.8-7.96-4.8s7.33,8.35,4.97,8.52c-2.36,0.17-7.88-6.21-7.88-6.21s6.51,8.04,3.76,8.17
						c-2.74,0.14-5.33-6.68-7.54-5.78c-2.2,0.89-9.8,4.77-13.05-1.01c0,0-1.37-1.9,3.33-9.72
						C1303.02,1215.21,1304.8,1215.4,1304.8,1215.4z"/>
				</g>
				<g>
					<path class="st26" d="M1320.77,1222.08c-0.02-0.02-1.58-2.04-3.08-1.97l-0.02-0.38c0.03,0,0.07,0,0.1,0
						c1.67,0,3.24,2.03,3.31,2.12L1320.77,1222.08z"/>
				</g>
				<g>
					<path class="st26" d="M1317.28,1224.66c-0.02-0.02-1.52-2.04-3.75-2.36l0.06-0.38c2.39,0.35,3.94,2.43,4,2.52L1317.28,1224.66z
						"/>
				</g>
				<g>
					<path class="st26" d="M1314.37,1226.97c-0.02-0.02-1.86-2.43-3.46-2.22l-0.05-0.38c1.81-0.25,3.74,2.26,3.82,2.37
						L1314.37,1226.97z"/>
				</g>
			</g>
		</g>
		<g>
			<path class="st11" d="M1270.89,1160.63c0,0-34.49,48.56,8.86,74.76l8.74-68.17L1270.89,1160.63z"/>
		</g>
		<g>
			<path class="st18" d="M1356.06,1247.43l-8.91-56.37l0.19-0.06c8.73-2.69,5.73-15.77,5.7-15.9l0.45-0.11
				c0.03,0.13,3.08,13.45-5.82,16.39l8.84,55.97L1356.06,1247.43z"/>
		</g>
	</g>
	<g>
		<g>
			<path class="st19" d="M1144.72,1192.82c-1.41-4.82-3.13-7.69-3.13-7.69s-10.64,0.06-11.16,1c-1.19,2.16-2.57,6.93-3.72,9.11
				c-0.5,0.94-1.95,4.23-1.07,4.85c0.76,0.54,3.16-1.53,4.18-2.66c0.88,6.98,5.3,16.76,4.52,2.01c0.01,0,0.02,0,0.02,0
				c0.22,1.48,1.42,9.74,3.3,8.68c1.66-0.94,1.04-6.89,0.71-9.34c0.02-0.01,0.04-0.01,0.07-0.02c0.55,2.46,2.04,8.35,3.32,6.95
				c1.61-1.76,1.09-8.3,1.09-8.3s0.85,8.34,2.96,6.53c1.44-1.23-0.31-7.89-0.8-10.23
				C1144.94,1193.38,1144.84,1193.08,1144.72,1192.82z"/>
		</g>
		<g>
			<g>
				<g>
					<path class="st11" d="M1060.36,1149.4c-9,1.7-26.8,5.18-40.11-4.12c-7.51-5.25-13.5-12.58-13.75-12.76l9.84-13.98l-4.92,6.99
						l4.9-7c5.12,3.69,13.6,14.96,25.47,12.06c5.39-1.32,11.66-2.13,18.16-11.7l17.14,5.98
						C1071.7,1135.6,1073.27,1147.49,1060.36,1149.4z"/>
				</g>
			</g>
			<g>
				<path class="st19" d="M1029.78,1134.37c0,0-5.59-8.27-11.28-10.82c-5.69-2.55-9.29-0.43-9.29-0.43l-6.1-2.42
					c0,0-0.87,22.97,14.98,18.92C1019.34,1139.3,1029.78,1134.37,1029.78,1134.37z"/>
			</g>
			<g>
				<path class="st29" d="M1004.02,1108.73l5.83,33.29c0.38,2.18,2.5,3.62,4.68,3.18l15.62-3.14c2.1-0.42,3.48-2.43,3.11-4.52
					l-5.74-32.81c-0.37-2.13-2.41-3.56-4.56-3.2l-15.7,2.66C1005.09,1104.55,1003.64,1106.59,1004.02,1108.73z"/>
			</g>
			<g>
				<path class="st30" d="M1006.46,1107.69c0.02-0.57,0.5-1.02,1.07-1.01c0.58,0.02,1.03,0.49,1.01,1.06
					c-0.02,0.57-0.5,1.02-1.07,1.01C1006.9,1108.74,1006.44,1108.26,1006.46,1107.69z"/>
			</g>
			<g>
				<g>
					<path class="st19" d="M1000.42,1121.48c0,0-2.05-4.47,2.07-6.3c5.26-2.33,14.06-0.24,10.75,1.28
						c-2.94,1.35-7.57,2.28-7.57,2.28s11.81-2.2,11.43,0.39c-0.38,2.59-10.56,4.34-10.56,4.34s11.7-1.06,10.55,1.27
						c-1.16,2.33-10.39,3.98-10.39,3.98s11.38-1.65,9.98,1.03c-1.41,2.68-7.47,2.35-10.07,2.79c-2.46,0.42-3.52-1.02-3.76-3.4
						c0,0-1.62-2.23-1.38-3.83c0.09-0.61-0.56-1.09-0.69-1.51C1000.55,1123.01,1000.42,1121.48,1000.42,1121.48z"/>
				</g>
			</g>
			<g>
				<path class="st18" d="M1120.9,1185.8c-0.06,2.41-14.74,3.37-32.89,2.8c-18.15-0.56-32.66-3.05-32.59-5.46
					c0.06-2.41,14.67-3.82,32.82-3.26C1106.39,1180.45,1120.96,1183.39,1120.9,1185.8z"/>
			</g>
			<g>
				<path class="st11" d="M1116.45,1117.61c0,0-3.21-12.62-26.89-12.75c-34.15-0.18-30.99,30.96-34.15,78.28
					c0,0,20.71-8.58,65.48,2.66C1120.9,1185.8,1123.87,1136.9,1116.45,1117.61z"/>
			</g>
			<g>
				<path class="st11" d="M1125.2,1115.8l-15.47,8.49c0,0-34.6,7.58-43.6,6.11c-8.99-1.47-10.72-5.12-10.72-5.12
					s9.58-17.26,25.85-19.89c1.53-0.25,3.12-0.43,4.76-0.54c2.76-0.18,5.53-0.14,8.23,0.16
					C1114.88,1107.33,1125.2,1115.8,1125.2,1115.8z"/>
			</g>
			<g>
				<path class="st19" d="M1092.82,1101.97l-1.79-5.73l-0.52-1.67l-3.06-9.8l-0.4,9.75l-0.24,5.85l-0.08,1.85
					c-0.05,1.26-0.82,1.52-1.76,2.61c-0.38,0.44-2.82,3.13-0.05,4.34c3.45,1.51,9.89-0.78,12.33-3.77
					C1097.23,1105.41,1093.4,1103.82,1092.82,1101.97z"/>
			</g>
			<g>
				<g>
					<path class="st19" d="M1129.77,1189.96c-1.42-15.56-4.69-37.8-12.17-55.41c-1.73-4.08-2.45-5.61-3.81-7.84
						c-1.09-1.79,0.86-5.73,3.93-7.61c2.88-1.76,7.37-1.47,8.08-0.6c1.21,1.48,2.5,4.33,4.5,8.85c6.97,15.7,11.14,35.97,12.83,62.11
						L1129.77,1189.96z"/>
				</g>
			</g>
			<g>
				<path class="st21" d="M1079.58,1081.1c0,0-0.62,2.37,0,5.35c0.62,2.97,3.67-4.34,3.67-4.34L1079.58,1081.1z"/>
			</g>
			<g>
				<path class="st19" d="M1079.22,1087.3c0.76-5.75,5.27-9.91,10.08-9.28c4.81,0.63,8.09,5.8,7.32,11.55
					c-0.76,5.75-5.27,9.91-10.08,9.28C1081.73,1098.22,1078.46,1093.05,1079.22,1087.3z"/>
			</g>
			<g>
				<g>
					<path class="st22" d="M1087.46,1088c-0.05-0.03-0.08-0.08-0.08-0.13c-0.01-0.1,0.06-0.18,0.16-0.19c0.06,0,1.38-0.24,2.05,1.16
						c0.04,0.09,0.01,0.19-0.08,0.24c-0.09,0.04-0.18,0-0.24-0.08c-0.62-0.76-1.65-0.97-1.7-0.96
						C1087.53,1088.03,1087.49,1088.02,1087.46,1088z"/>
				</g>
			</g>
			<g>
				<path class="st22" d="M1088.23,1090.26c-0.11,0.41-0.44,0.67-0.74,0.59c-0.3-0.08-0.45-0.48-0.34-0.88
					c0.11-0.41,0.44-0.67,0.74-0.59C1088.19,1089.46,1088.34,1089.85,1088.23,1090.26z"/>
			</g>
			<g>
				<g>
					<path class="st22" d="M1080.87,1087.47c-0.04-0.01-0.08-0.04-0.1-0.09c-0.03-0.08,0-0.19,0.07-0.24
						c0.04-0.03,0.95-0.79,1.81,0.2c0.05,0.06,0.06,0.17,0,0.25c-0.05,0.08-0.13,0.07-0.2,0.03c-0.66-0.43-1.47-0.19-1.51-0.17
						C1080.93,1087.47,1080.9,1087.48,1080.87,1087.47z"/>
				</g>
			</g>
			<g>
				<path class="st22" d="M1082.5,1089.28c0.05,0.42-0.15,0.79-0.46,0.83s-0.6-0.27-0.65-0.69s0.15-0.79,0.46-0.83
					C1082.15,1088.56,1082.44,1088.86,1082.5,1089.28z"/>
			</g>
			<g>
				<path class="st21" d="M1102.47,1086.84c0,0-2.93,6.28-7.09,6.74c0,0,3.36-4.79-3.73-7.71
					C1091.65,1085.88,1098.16,1084.86,1102.47,1086.84z"/>
			</g>
			<g>
				<path class="st19" d="M1096.6,1090.31c-0.89,0.56-2.02,0.38-2.53-0.41s-0.19-1.88,0.7-2.45c0.89-0.56,2.02-0.38,2.53,0.41
					C1097.8,1088.65,1097.49,1089.75,1096.6,1090.31z"/>
			</g>
			<g>
				<path class="st21" d="M1091.65,1085.88c0,0,0.57,5.27-0.51,6.27c-1.08,1-8.22,1.43-11.55,0.15l0,0
					c-0.06,3.39,2.35,6.38,5.71,6.94c1.11,0.19,2.27,0.19,3.41-0.01l0,0c2.33-0.4,4.6-1.36,5.56-3.51c0.29-0.65-0.56-4.67-0.56-4.67
					s-0.32-2.36,1.06-3.59C1094.77,1087.45,1093.17,1086.03,1091.65,1085.88z"/>
			</g>
			<g>
				<path class="st18" d="M1091.65,1085.88c0,0,0.59-3.69-2.33-3.95c-2.91-0.26-6.23-0.75-7.38,0c-1.14,0.75-2.51,3.69-2.51,3.69
					s-1.6-5.53,1.33-7.89c2.93-2.36,12.26-5.48,18.22-1.36c5.96,4.12,3.48,10.48,3.48,10.48S1098.21,1085.56,1091.65,1085.88z"/>
			</g>
			<g>
				<path class="st18" d="M1095.69,1076.37c0,0,4.39-3.6,3.4-6.26c-0.99-2.66-5.64-1.82-7.44-1.4c-1.8,0.42-2.1,3.6-0.66,5.65
					C1092.43,1076.41,1095.69,1076.37,1095.69,1076.37z"/>
			</g>
			<g>
				<path class="st18" d="M1088.92,1301.86c-2.11-0.11-4.06,0.97-5.1,2.79c-0.49,0.86-1.19,1.64-2.23,2.06
					c-3.17,1.31-12.35,2.49-8.92,5.48c1.97,1.72,11.25,0.61,13.87,0.61c2.62,0,5.08,1.13,7.03-0.61c1.17-1.04,1.06-4.34,0.73-7.13
					c-0.24-2.01-2.07-3.5-4.1-3.25c-0.31,0.04-0.62,0.06-0.92,0.05C1089.16,1301.87,1089.04,1301.86,1088.92,1301.86z"/>
			</g>
			<g>
				<path class="st18" d="M1121.29,1300.75c0,0-0.12,4.65-3.29,5.96c-3.17,1.31-12.35,2.49-8.92,5.48
					c1.97,1.71,11.25,0.61,13.87,0.61c2.62,0,5.08,1.13,7.03-0.61c2.14-1.91,0-11.44,0-11.44s-2.26,1.17-4.29,1.12
					C1122.76,1301.79,1121.29,1300.75,1121.29,1300.75z"/>
			</g>
			<g>
				<path class="st25" d="M1065.24,1183.81c-1.43,0.15-2.57,1.26-2.74,2.68c-0.34,2.83-0.4,8.81,1.31,21.21
					c2.51,18.22,12,84.72,13.58,93.59c0.56,3.17,1.21,5.12,5.84,5.79l6.15-0.12c5.01,0.72,6.94-4.61,6.97-8.02l-4.03-102.44
					l16-12.12c0,0-11.98-1.52-25.52-1.51C1075.16,1182.88,1068.49,1183.47,1065.24,1183.81z"/>
			</g>
			<g>
				<path class="st25" d="M1080.3,1187.21l35.28,112.46c1.48,4.71,5.75,7.93,10.61,8.02l2.12,0.04c5.01,0.08,8.83-4.51,7.92-9.51
					l-19.3-105.67c-0.28-1.26-1-6.81-2.22-7.16C1108.1,1183.49,1079.65,1182.56,1080.3,1187.21z"/>
			</g>
			<g>
				<path class="st24" d="M1096.07,1237.47l-7.59-22.89c-1.71-5.15-5.21-9.44-9.88-12.09l0.29-0.51c4.79,2.72,8.4,7.14,10.15,12.42
					l7.59,22.89L1096.07,1237.47z"/>
			</g>
			<g>
				<path class="st13" d="M1104.79,1107.72c0,0,3.68-3.37-0.75-4.56c-1.75-0.47-4.36-4.76-6.79-4.39s-3.87,13.97-13.64,18.18
					c0,0-2.41,2.08,1.51,1.99C1089.04,1118.84,1104.79,1107.72,1104.79,1107.72z"/>
			</g>
			<g>
				<path class="st13" d="M1083.61,1116.95c0,0-4.89-4.77-4.03-9.22c0.85-4.45-1.63-8.26-2.84-6.25c-1.21,2.01-2.61,0.76-2.89,3.28
					c-0.28,2.52,3.5,14.92,6.92,14.92S1083.61,1116.95,1083.61,1116.95z"/>
			</g>
			<g>
				<path class="st13" d="M1084.72,1117.88c0,0,3.16,1.41,1.99,4.75c-1.17,3.34,0.47,4.69,0.47,4.69s-3.83,0.18-4.29-3.39
					C1082.42,1120.35,1084.72,1117.88,1084.72,1117.88z"/>
			</g>
			<g>
				<path class="st13" d="M1082.92,1117.88c0,0-4.01,1.36-4.18,3.95c-0.17,2.59,2.13,3.21,2.93,1.66c0.81-1.54,2.49-4.56,2.49-4.56
					L1082.92,1117.88z"/>
			</g>
			<g>
				<path class="st21" d="M1094.27,1095.71c0,0-0.03,3.63-2.62,5.66c-2.59,2.04-0.88,3.81-3.16,6.7s0.43,2.96-3.6,5.06
					s-7.08,0.2-6.29-3.02c0.79-3.22-2.71-2.36-1.06-6.44c1.65-4.07,2.86-1.58,1.46-5.91c-1.4-4.34,0.58-5.46,0.58-5.46
					s2.23,0.15,4.03,0.47s3.42-0.24,4.68,0.16C1089.55,1093.33,1094.27,1095.71,1094.27,1095.71z"/>
			</g>
			<g>
				<path class="st8" d="M1081.34,1094.2c0,0,2.74,0.73,5.73,0.45c0,0-0.44,2.75-3.46,2.2
					C1081.84,1096.53,1081.34,1094.2,1081.34,1094.2z"/>
			</g>
			<g>
				<path class="st18" d="M1143.14,1183.83c0,0-9.22,0.98-14,0c0,0-0.62,2.44,0.38,3.55c0,0,11.05,0.83,13.62,0
					C1143.14,1187.38,1145.04,1185.55,1143.14,1183.83z"/>
			</g>
			<g>
				<path class="st21" d="M1137.15,1189.4h0.17c1.81,0,3.3-1.48,3.3-3.3v-0.62c0-1.81-1.48-3.3-3.3-3.3h-0.17
					c-1.81,0-3.3,1.48-3.3,3.3v0.62C1133.85,1187.91,1135.33,1189.4,1137.15,1189.4z"/>
			</g>
			<g>
				<path class="st11" d="M1125.2,1115.8c0,0,7.82,4.59,15.42,34.73c7.6,30.14,1.89,30.69,1.89,30.69s-10.26,0.2-13.55-0.97
					c-3.3-1.17-5.06-28.18-11.64-39.16C1110.73,1130.1,1108.38,1113.28,1125.2,1115.8z"/>
			</g>
			<g>
				<path class="st21" d="M1082.82,1137.39c0-0.64-0.52-1.16-1.16-1.16c-0.64,0-1.16,0.52-1.16,1.16s0.52,1.16,1.16,1.16
					C1082.3,1138.54,1082.82,1138.02,1082.82,1137.39z"/>
			</g>
			<g>
				<path class="st21" d="M1082.82,1151.47c0-0.64-0.52-1.16-1.16-1.16c-0.64,0-1.16,0.52-1.16,1.16s0.52,1.16,1.16,1.16
					C1082.3,1152.62,1082.82,1152.1,1082.82,1151.47z"/>
			</g>
			<g>
				<path class="st21" d="M1082.82,1168.15c0-0.64-0.52-1.16-1.16-1.16c-0.64,0-1.16,0.52-1.16,1.16s0.52,1.16,1.16,1.16
					C1082.3,1169.31,1082.82,1168.79,1082.82,1168.15z"/>
			</g>
			<g>
				<g>
					<path class="st21" d="M1121.2,1151.93l0.58-0.14c-2.24-9.42-6.08-18.21-6.12-18.3l-0.54,0.24
						C1115.15,1133.81,1118.98,1142.56,1121.2,1151.93z"/>
				</g>
			</g>
			<g>
				<g>
					<path class="st21" d="M1057.62,1150.33c0.65-10.49,5.9-23.96,5.95-24.09l-0.55-0.21c-0.06,0.13-5.34,13.69-5.99,24.27
						L1057.62,1150.33z"/>
				</g>
			</g>
		</g>
	</g>
</g>
</svg>
