<?xml version="1.0" encoding="utf-8"?>
<!-- Generator: Adobe Illustrator 25.1.0, SVG Export Plug-In . SVG Version: 6.00 Build 0)  -->
<svg version="1.1" xmlns="http://www.w3.org/2000/svg" xmlns:xlink="http://www.w3.org/1999/xlink" x="0px" y="0px"
	 viewBox="0 0 500 500" style="enable-background:new 0 0 500 500;" xml:space="preserve">
<style type="text/css">
	.st0{fill:#E6C2F9;}
	.st1{fill:none;stroke:#FFBFF3;stroke-width:3;stroke-linecap:round;stroke-linejoin:round;stroke-miterlimit:10;}
	.st2{fill:none;stroke:#FFBFF3;stroke-width:5;stroke-linecap:round;stroke-linejoin:round;stroke-miterlimit:10;}
	.st3{fill:none;stroke:#AD5FCF;stroke-width:3;stroke-linecap:round;stroke-linejoin:round;stroke-miterlimit:10;}
	.st4{fill:none;stroke:#AD5FCF;stroke-width:5;stroke-linecap:round;stroke-linejoin:round;stroke-miterlimit:10;}
	.st5{fill:#FFB25F;}
	.st6{fill:#FD9A44;}
	.st7{fill:#F1903C;}
	.st8{fill:#ED8F88;}
	.st9{fill:#F4988C;}
	.st10{fill:#AB64E2;}
	.st11{fill:#9559CE;}
	.st12{fill:#9554D3;}
	.st13{fill:#FFAB9B;}
	.st14{fill:none;stroke:#542A6F;stroke-width:1.5;stroke-linecap:round;stroke-linejoin:round;stroke-miterlimit:10;}
	.st15{fill:none;stroke:#754E93;stroke-width:1.5;stroke-linecap:round;stroke-linejoin:round;stroke-miterlimit:10;}
	.st16{fill:#9DDDF4;}
	.st17{fill:#B991D8;}
	.st18{fill:#7635A1;}
	.st19{fill:#945CE5;}
	.st20{fill:none;stroke:#FFFFFF;stroke-width:1.5;stroke-linecap:round;stroke-linejoin:round;stroke-miterlimit:10;}
</style>
<g id="BACKGROUND">
</g>
<g id="OBJECTS">
	<g id="BACK_SQUARE">
		<polygon class="st0" points="125.31,461.94 401.28,450.93 394.77,97.24 118.01,109.81 		"/>
		<g>
			<polygon class="st1" points="377.24,134.29 371.81,141.72 366.38,134.29 371.81,126.86 			"/>
			<polygon class="st1" points="167.22,430.21 161.79,437.64 156.37,430.21 161.79,422.78 			"/>
			<line class="st2" x1="142.64" y1="138.4" x2="142.64" y2="138.4"/>
			<line class="st2" x1="361.04" y1="178.2" x2="361.04" y2="178.2"/>
			<line class="st2" x1="345.99" y1="132.6" x2="345.99" y2="132.6"/>
			<line class="st2" x1="143.55" y1="186.45" x2="143.55" y2="186.45"/>
			<line class="st2" x1="387.88" y1="396.35" x2="387.88" y2="396.35"/>
		</g>
	</g>
	<g id="SHAPES">
		<g>
			<circle class="st3" cx="446.66" cy="87.93" r="12.93"/>
			<line class="st3" x1="455.79" y1="122.08" x2="449.31" y2="100.59"/>
			<line class="st3" x1="443.92" y1="114.25" x2="461.41" y2="109.38"/>
			<polyline class="st3" points="455.21,78.23 471.23,58.49 460.42,58.49 			"/>
			<line class="st3" x1="471.68" y1="68.36" x2="471.23" y2="58.49"/>
			<line class="st3" x1="455.21" y1="65.34" x2="467.65" y2="75.61"/>
			<polyline class="st3" points="436.14,80.41 417.45,67.24 420.34,78.23 			"/>
			<line class="st3" x1="429.01" y1="66.25" x2="417.45" y2="67.24"/>
		</g>
		<g>
			<path class="st3" d="M50.7,242.6c-6.59,2.75-9.71,10.32-6.96,16.91c2.75,6.59,10.32,9.71,16.91,6.96
				c6.59-2.75,9.71-10.32,6.96-16.91C64.86,242.97,57.29,239.85,50.7,242.6z"/>
			<line class="st3" x1="83.68" y1="232.97" x2="66.34" y2="247.22"/>
			<line class="st3" x1="81.02" y1="246.93" x2="69.79" y2="232.66"/>
			<polyline class="st3" points="43.43,250.38 19.05,243.19 23.21,253.16 			"/>
			<line class="st3" x1="27.98" y1="238.97" x2="19.05" y2="243.19"/>
			<line class="st3" x1="31.53" y1="255.34" x2="36.22" y2="239.9"/>
			<polyline class="st3" points="52.78,267.14 47.82,289.46 56.85,282.56 			"/>
			<line class="st3" x1="42.46" y1="279.17" x2="47.82" y2="289.46"/>
		</g>
		<g>
			<path class="st3" d="M442.47,425.15c2.12,6.82,9.37,10.62,16.19,8.5c6.82-2.12,10.62-9.37,8.5-16.19
				c-2.12-6.82-9.37-10.62-16.19-8.5C444.15,411.08,440.34,418.33,442.47,425.15z"/>
			<line class="st3" x1="435.94" y1="391.41" x2="448.52" y2="410.01"/>
			<line class="st3" x1="449.6" y1="395.36" x2="434.35" y2="405.21"/>
			<polyline class="st3" points="449.54,433.1 440.12,456.72 450.43,453.5 			"/>
			<line class="st3" x1="436.74" y1="447.43" x2="440.12" y2="456.72"/>
			<line class="st3" x1="453.37" y1="445.42" x2="438.44" y2="439.31"/>
			<polyline class="st3" points="467.09,425.36 488.85,432.37 482.82,422.73 			"/>
			<line class="st3" x1="478.11" y1="436.75" x2="488.85" y2="432.37"/>
		</g>
		<g>
			
				<ellipse transform="matrix(0.9629 -0.2699 0.2699 0.9629 -13.6792 19.4759)" class="st3" cx="63.97" cy="59.47" rx="12.93" ry="12.93"/>
			<line class="st3" x1="57.92" y1="24.64" x2="62.46" y2="46.63"/>
			<line class="st3" x1="69.04" y1="33.5" x2="51.18" y2="36.79"/>
			<polyline class="st3" points="54.59,68.37 36.88,86.61 47.64,87.57 			"/>
			<line class="st3" x1="37.3" y1="76.73" x2="36.88" y2="86.61"/>
			<line class="st3" x1="53.44" y1="81.21" x2="41.96" y2="69.88"/>
			<polyline class="st3" points="73.77,67.9 91.22,82.68 89.32,71.47 			"/>
			<line class="st3" x1="79.62" y1="82.64" x2="91.22" y2="82.68"/>
		</g>
		<polygon class="st3" points="88.36,145.83 82.93,153.26 77.5,145.83 82.93,138.4 		"/>
		<polygon class="st3" points="393.31,481.11 387.88,488.54 382.45,481.11 387.88,473.68 		"/>
		<polygon class="st3" points="361.04,58.49 355.62,65.92 350.19,58.49 355.62,51.06 		"/>
		<polygon class="st3" points="50.46,375.48 45.03,382.91 39.6,375.48 45.03,368.05 		"/>
		<polygon class="st3" points="445.54,250.54 440.12,257.97 434.69,250.54 440.12,243.11 		"/>
		<polygon class="st3" points="483.4,171.95 477.97,179.38 472.54,171.95 477.97,164.52 		"/>
		<polygon class="st3" points="99.07,460.92 93.64,468.35 88.21,460.92 93.64,453.49 		"/>
		<polygon class="st3" points="162.27,43.46 156.84,50.89 151.41,43.46 156.84,36.04 		"/>
		<line class="st4" x1="464.01" y1="324.54" x2="464.01" y2="324.54"/>
		<line class="st4" x1="471.23" y1="468.35" x2="471.23" y2="468.35"/>
		<line class="st4" x1="423.23" y1="170.55" x2="423.23" y2="170.55"/>
		<line class="st4" x1="152.95" y1="80.41" x2="152.95" y2="80.41"/>
		<line class="st4" x1="45.03" y1="461.48" x2="45.03" y2="461.48"/>
		<line class="st4" x1="76.65" y1="313.97" x2="76.65" y2="313.97"/>
		<line class="st4" x1="483.48" y1="375.48" x2="483.48" y2="375.48"/>
		<line class="st4" x1="175.9" y1="481.11" x2="175.9" y2="481.11"/>
		<line class="st4" x1="50.39" y1="172.89" x2="50.39" y2="172.89"/>
		<line class="st4" x1="233.99" y1="36.04" x2="233.99" y2="36.04"/>
	</g>
	<g id="GIRL_WITH_FRAME">
		<g>
			<path class="st5" d="M177.59,384.7c0,0,5.94,38.51,7.87,72.65l162.14-6.47l-4.75-157.28l-167.36,4.8l-49.02,51.53l-1.93,32.64
				l33.28,23.6C165.17,399.86,171.96,392.57,177.59,384.7z"/>
			<path class="st6" d="M324.58,453.5l23.02-0.92l-1.91-63.31l-33.32,2.15C312.37,391.41,308.44,425.97,324.58,453.5z"/>
			<path class="st6" d="M345.01,366.68l-220.25,13.99l-0.21,3.61l20.95,14.85h21.52c3.82-4.01,7.39-8.28,10.59-12.74
				c0,0,0.76,4.9,1.81,12.74h166.58L345.01,366.68z"/>
			<path class="st7" d="M162.56,403.58c-8.41-21.55-25.39-47.82-31.42-56.85l-4.67,4.91l-1.93,32.64l33.28,23.6
				C159.44,406.49,161.01,405.05,162.56,403.58z"/>
			<path class="st8" d="M150.8,379.02l-26.04,1.65l-0.21,3.61l20.95,14.85h15.24C157.9,392.52,154.41,385.62,150.8,379.02z"/>
		</g>
		<g>
			<path class="st9" d="M126.47,351.64l-49.82,52.38c4.34,13.16,15.14,22.75,25.62,25.27c16.28,3.92,36.45-4.99,55.55-21.42
				L126.47,351.64z"/>
			<polygon class="st8" points="142.05,379.57 115.35,381.27 117.24,399.13 152.95,399.13 			"/>
		</g>
		<g>
			
				<ellipse transform="matrix(0.9868 -0.1619 0.1619 0.9868 -7.6913 48.011)" class="st10" cx="290.66" cy="71.18" rx="35.03" ry="35.03"/>
			<path class="st11" d="M290.66,106.22c12.14,0,22.83-6.17,29.12-15.55c-13.68-13.12-30.78-18.25-44.59-19.98
				c-8.09-1.01-15.05-0.85-19.53-0.44c-0.01,0.31-0.02,0.62-0.02,0.94C255.62,90.53,271.31,106.22,290.66,106.22z"/>
			<path class="st12" d="M172.53,178.2c0,0-17.56-44.06,15.68-86.69c23.31-29.89,61.44-18.92,82.15-9.69
				c0,0,47.08-12.02,56.47,34.36c9.38,46.38-8.47,73.85-8.47,73.85l-72.77,3.61L172.53,178.2z"/>
			<path class="st13" d="M187.59,162.21c0,0-8.94,71.86,17.52,95.09c26.45,23.24,91.88,17.09,101.89-14.52
				c10.01-31.6,3.57-78.07,3.57-78.07s-33.6-9.65-38.43-35.93c0,0-4.39,19.87-22.77,21.85c-14.9,1.61-22.28-8.45-22.28-8.45
				s-5.32,13.55-12.42,17.25C201.8,166.14,187.59,162.21,187.59,162.21z"/>
			<path class="st13" d="M188.3,175.08c0,0-12.33-13.05-23.06-1.79c-10.72,11.26-3.04,48.62,26.28,45.04L188.3,175.08z"/>
			<g>
				<line class="st14" x1="168.28" y1="190.09" x2="176.77" y2="182.77"/>
				<line class="st14" x1="179.28" y1="193.64" x2="172.53" y2="186.43"/>
			</g>
			<path class="st13" d="M309.33,175.08c0,0,12.33-13.05,23.06-1.79c10.72,11.26,3.04,48.62-26.28,45.04L309.33,175.08z"/>
			<path class="st14" d="M249.37,176.41l2.79,12.03c0,0,6.7,0.87,6.64,4.69c-0.07,3.82-5.26,3.35-5.26,3.35"/>
			<g>
				<path class="st14" d="M203.03,174.6l2.75,5.73c20.98-9.65,28.49,1.47,28.49,1.47"/>
				<line class="st14" x1="210.53" y1="173.59" x2="212.07" y2="177.9"/>
				<line class="st14" x1="216.87" y1="172.89" x2="217.56" y2="176.66"/>
			</g>
			<g>
				<path class="st14" d="M299.04,173.66l-2.75,5.73c-20.98-9.65-28.49,1.47-28.49,1.47"/>
				<line class="st14" x1="291.53" y1="172.65" x2="290" y2="176.96"/>
				<line class="st14" x1="285.2" y1="171.95" x2="284.51" y2="175.72"/>
			</g>
			<g>
				<path class="st15" d="M185.42,155.85c0,0,0-88.83,80.01-65.2"/>
				<path class="st15" d="M212.07,148.5c0,0,1.24-43.55,51.92-40.45"/>
				<path class="st15" d="M234.26,132.82c0,0,17.53,6.87,32.31-10.65"/>
				<path class="st15" d="M270.6,86.06c0,0-3.93,14.72,1.75,38.19"/>
				<path class="st15" d="M273.22,91.4c0,0,25.74-7.14,39.81,14.82s7.84,47.83,7.84,47.83"/>
				<path class="st15" d="M275.18,109.35c0,0,43.06,6.67,37.84,46.5"/>
				<path class="st15" d="M277.31,122.17c0,0,5.42,16.11,23.51,24.24"/>
			</g>
			<path class="st9" d="M311.23,170.55c-0.37-3.69-0.67-5.84-0.67-5.84s-33.6-9.65-38.43-35.93c0,0-4.39,19.87-22.77,21.85
				c-14.9,1.61-22.28-8.45-22.28-8.45s-5.32,13.55-12.42,17.25c-12.87,6.7-27.08,2.77-27.08,2.77s11.92,8.15,27.2,2.62
				c6.51-2.36,10.58-8.13,13.11-13.99c0,0,10.33,8.57,26.19,4.24c15.86-4.33,18.26-18.96,18.26-18.96S279.05,164.13,311.23,170.55
				L311.23,170.55z"/>
			<path class="st15" d="M292.01,43.47c-8.52-0.14-7.22,13.87,0.29,13.44c7.51-0.43,4.19-8.08,0.58-7.94"/>
			<path class="st9" d="M336.57,193.1c-7.69,0.37-17.49,0.85-28.68,1.4l0,0c-33.29,1.62-78.87,3.85-117.71,5.74l0,0
				c-9.4,0.46-18.4,0.9-26.73,1.31c3.94,9.41,12.08,17.23,24.73,17.01c2.36,15.25,7.2,29.88,16.53,38.37l105.93-30.27
				c0.41-2.69,0.75-5.42,1.01-8.14C326.57,217.64,334.69,205.17,336.57,193.1z"/>
			<g>
				<line class="st14" x1="329.35" y1="190.09" x2="320.86" y2="182.77"/>
				<line class="st14" x1="318.36" y1="193.64" x2="325.11" y2="186.43"/>
			</g>
		</g>
		<g>
			
				<rect x="110.72" y="202.42" transform="matrix(0.997 -0.0775 0.0775 0.997 -21.9883 21.1169)" class="st16" width="300.4" height="182.57"/>
			<path class="st17" d="M111.89,314.51c0,0,73.39-38.03,149.07-42.43c75.68-4.4,150.08,14.62,150.08,14.62l6.72,86.35l-299.5,23.29
				L111.89,314.51z"/>
			<path class="st13" d="M156.84,210.24c0.16,7.69,1.77,22.92,11.88,23.76c13.56,1.14,14.59-10.88,14.59-10.88l-0.59-14.9
				L156.84,210.24z"/>
			<path class="st13" d="M352,195.06c1.03,7.62,1.8,22.91-8.06,25.32c-13.22,3.22-16.1-8.49-16.1-8.49l-1.72-14.81L352,195.06z"/>
			<path class="st18" d="M213.2,321.59c36.82,8.44,120.33,0.51,129.15-46.74c-10.23-1.15-21.18-2.12-32.58-2.73L222.37,277
				c-13.94,2.66-27.33,6.09-39.7,9.8C182.07,295.64,184.27,314.96,213.2,321.59z"/>
			<path class="st19" d="M330.68,196.71c0,0,15.64,63.44-7.4,93.48c-23.04,30.04-96.34,28.3-120.16,13.09
				c-29.73-18.97-23.93-94.79-23.93-94.79L330.68,196.71z"/>
			<path class="st13" d="M204.73,231.68c12.04,6.98,29.06-18.97,51.25-20.93c22.18-1.97,29.84,16.17,45.53,15.19
				c13.97-0.88,16.83-13.89,14.56-28.09l-120.79,9.39C194.94,212.27,194.98,226.03,204.73,231.68z"/>
			<path class="st15" d="M234.95,233.7c0,0,21.52,6.43,44.7-8.08"/>
			<line class="st15" x1="205.8" y1="249.4" x2="206.53" y2="258.71"/>
			<line class="st15" x1="219.69" y1="275.91" x2="220.41" y2="285.23"/>
			<line class="st15" x1="195.41" y1="267.82" x2="196.13" y2="277.13"/>
			<line class="st15" x1="236.8" y1="255.23" x2="237.53" y2="264.54"/>
			<line class="st15" x1="266.98" y1="288.54" x2="267.71" y2="297.86"/>
			<line class="st15" x1="311.66" y1="250.54" x2="312.38" y2="259.85"/>
			<line class="st15" x1="326.49" y1="238.62" x2="327.22" y2="247.93"/>
			<line class="st15" x1="241.84" y1="290.5" x2="242.57" y2="299.81"/>
			<line class="st15" x1="189.18" y1="225.72" x2="189.9" y2="235.03"/>
			<line class="st15" x1="294.79" y1="236.4" x2="295.51" y2="245.71"/>
			<line class="st15" x1="321.37" y1="210.75" x2="322.1" y2="220.07"/>
			<line class="st15" x1="292.17" y1="270.27" x2="292.89" y2="279.59"/>
			<line class="st15" x1="312" y1="280.36" x2="312.73" y2="289.67"/>
			<line class="st15" x1="267.44" y1="256.4" x2="268.16" y2="265.72"/>
			<path class="st20" d="M173.08,233.93"/>
			<path class="st5" d="M169.79,234.06c0,0.04-0.02,0.08-0.02,0.13c0.14,1.74-1.17,3.27-2.91,3.4c-1.74,0.14-3.27-1.17-3.4-2.91
				c-0.14-1.74,1.17-3.27,2.91-3.4c0.46-0.04,0.8-0.43,0.76-0.89c-0.04-0.46-0.43-0.8-0.89-0.76c-2.65,0.21-4.64,2.53-4.44,5.18
				c0.21,2.65,2.53,4.64,5.18,4.44c2.65-0.21,4.64-2.53,4.44-5.18c0,0,0-0.01,0-0.01C170.9,234.07,170.36,234.08,169.79,234.06z"/>
			<path class="st5" d="M342.89,220.6c0.01,0.04,0.03,0.08,0.03,0.12c0.14,1.74,1.66,3.05,3.4,2.91c1.74-0.14,3.05-1.66,2.91-3.4
				c-0.14-1.74-1.66-3.05-3.4-2.91c-0.46,0.04-0.85-0.3-0.89-0.76c-0.04-0.46,0.3-0.85,0.76-0.89c2.65-0.21,4.98,1.78,5.18,4.44
				c0.21,2.65-1.78,4.98-4.44,5.18c-2.65,0.21-4.98-1.78-5.18-4.44c0,0,0-0.01,0-0.01C341.8,220.78,342.33,220.7,342.89,220.6z"/>
		</g>
		<g>
			<path class="st13" d="M76.65,404.02c-10.61-30.28,25.19-68.13,25.19-68.13l10.05-21.37l0.77,9.96c0,0,19.85-20.98,24.87-17.6
				c5.02,3.38-11.13,25.32-11.13,25.32s17.03-20.19,22.6-17.36c5.57,2.84-12.88,26.2-12.88,26.2s15.72-16.26,19.43-13.21
				c3.71,3.06-11.13,21.4-11.13,21.4s11.35-9.56,14.85-5.89c4.69,4.91-22.05,21.94-22.05,21.94s-5.79,31.27-21.67,42.08
				C99.65,418.16,81.26,417.18,76.65,404.02z"/>
			<path class="st14" d="M112.66,324.47c0,0,19.85-20.98,24.87-17.6c5.02,3.38-11.13,25.32-11.13,25.32s17.03-20.19,22.6-17.36
				c5.57,2.84-12.88,26.2-12.88,26.2s15.72-16.26,19.43-13.21c3.71,3.06-11.13,21.4-11.13,21.4s11.35-9.56,14.85-5.89
				c4.69,4.91-22.05,21.94-22.05,21.94s-5.79,31.27-21.67,42.08"/>
			<path class="st14" d="M74.7,390.93c0.7-27.08,27.14-55.04,27.14-55.04"/>
			<path class="st14" d="M93.64,413.63c0,0,0.22,4.12,6.72,5.63"/>
		</g>
		<g>
			<path class="st13" d="M369.24,365.39c0,0,21.64,87.8-16.75,95.66s-22.29-95.72-22.29-95.72s-7.67-35.99-1.15-37.17
				c5.73-1.04,7.53,18.58,7.53,18.58s-2.78-27.92,3.52-28.98c6.3-1.06,7.29,28.16,7.29,28.16s-1.64-33.08,5.57-33.08
				c6.3,0,5.18,32.01,5.18,32.01s-0.05-29.32,6.09-29.7c5.17-0.32,3.85,27.48,3.65,35.81c0,0,10.56-9.28,13.73-5.56
				C384.78,349.12,378.69,360.2,369.24,365.39z"/>
			<path class="st14" d="M330.2,365.33c0,0-7.67-35.99-1.15-37.17c5.73-1.04,7.53,18.58,7.53,18.58s-2.78-27.92,3.52-28.98
				c6.3-1.06,7.29,28.16,7.29,28.16s-1.64-33.08,5.57-33.08c6.3,0,5.18,32.01,5.18,32.01s-0.05-29.32,6.09-29.7
				c5.17-0.32,3.85,27.48,3.65,35.81c0,0,10.56-9.28,13.73-5.56c3.17,3.71-2.92,14.79-12.37,19.98c0,0,21.64,87.8-16.75,95.66
				c-13.87,2.84-20.63-8.87-23.6-24.98"/>
			<path class="st14" d="M344.33,450.15c0,0,6.14,7.01,13.08,0.79"/>
		</g>
	</g>
</g>
</svg>
